<?xml version="1.0" encoding="utf-8"?>
<!-- Generator: Adobe Illustrator 23.0.2, SVG Export Plug-In . SVG Version: 6.00 Build 0)  -->
<svg version="1.2" baseProfile="tiny" id="Layer_1" xmlns="http://www.w3.org/2000/svg" xmlns:xlink="http://www.w3.org/1999/xlink"
	 x="0px" y="0px" viewBox="0 0 595.28 841.89" xml:space="preserve">
<path fill="#ED1C24" d="M269.08,353.16v-26.71h4.3v4.07c1.09-1.85,2.12-3.14,3.05-3.71c0.92-0.62,1.96-0.93,3.1-0.93
	c1.58,0,3.21,0.46,4.89,1.44l-1.69,4.17c-1.2-0.62-2.34-0.93-3.48-0.93c-1.03,0-2.01,0.31-2.83,0.87c-0.82,0.62-1.41,1.44-1.74,2.47
	c-0.54,1.6-0.82,3.4-0.82,5.3v13.95H269.08z"/>
<path fill="none" stroke="#ED1C24" stroke-width="0.216" stroke-miterlimit="2.6131" d="M269.08,353.16v-26.71h4.3v4.07
	c1.09-1.85,2.12-3.14,3.05-3.71c0.92-0.62,1.96-0.93,3.1-0.93c1.58,0,3.21,0.46,4.89,1.44l-1.69,4.17c-1.2-0.62-2.34-0.93-3.48-0.93
	c-1.03,0-2.01,0.31-2.83,0.87c-0.82,0.62-1.41,1.44-1.74,2.47c-0.54,1.6-0.82,3.4-0.82,5.3v13.95H269.08z"/>
<path fill="#F58220" d="M292.95,340.35c0,3.33,0.9,5.86,2.63,7.47c1.74,1.67,3.89,2.52,6.52,2.52s4.79-0.86,6.58-2.52
	c1.74-1.67,2.57-4.19,2.57-7.62c0-3.23-0.9-5.7-2.63-7.37c-1.74-1.67-3.89-2.47-6.52-2.47s-4.79,0.81-6.52,2.47
	C293.85,334.49,292.95,336.96,292.95,340.35z M287.56,340.3c0-4.8,1.62-8.38,4.79-10.75c2.69-1.92,5.93-2.88,9.76-2.88
	c4.31,0,7.78,1.16,10.47,3.53c2.69,2.32,4.07,5.6,4.07,9.74c0,3.38-0.6,6.01-1.8,7.93c-1.2,1.92-2.93,3.43-5.21,4.49
	c-2.33,1.11-4.79,1.62-7.54,1.62c-4.31,0-7.84-1.16-10.53-3.53C288.88,348.12,287.56,344.74,287.56,340.3z"/>
<path fill="none" stroke="#F58220" stroke-width="0.216" stroke-miterlimit="2.6131" d="M292.95,340.35c0,3.33,0.9,5.86,2.63,7.47
	c1.74,1.67,3.89,2.52,6.52,2.52s4.79-0.86,6.58-2.52c1.74-1.67,2.57-4.19,2.57-7.62c0-3.23-0.9-5.7-2.63-7.37
	c-1.74-1.67-3.89-2.47-6.52-2.47s-4.79,0.81-6.52,2.47C293.85,334.49,292.95,336.96,292.95,340.35z M287.56,340.3
	c0-4.8,1.62-8.38,4.79-10.75c2.69-1.92,5.93-2.88,9.76-2.88c4.31,0,7.78,1.16,10.47,3.53c2.69,2.32,4.07,5.6,4.07,9.74
	c0,3.38-0.6,6.01-1.8,7.93c-1.2,1.92-2.93,3.43-5.21,4.49c-2.33,1.11-4.79,1.62-7.54,1.62c-4.31,0-7.84-1.16-10.53-3.53
	C288.88,348.12,287.56,344.74,287.56,340.3z"/>
<path fill="#00AEEF" d="M344.37,343.83l5.3,0.61c-0.55,2.98-2.03,5.3-4.44,7.02c-2.4,1.67-5.36,2.52-8.81,2.52
	c-4.37,0-7.88-1.16-10.53-3.53c-2.65-2.32-4-5.65-4-10.05c0-2.83,0.55-5.25,1.72-7.37c1.11-2.12,2.9-3.74,5.24-4.8
	c2.28-1.06,4.87-1.56,7.58-1.56c3.45,0,6.34,0.71,8.5,2.17c2.22,1.41,3.63,3.48,4.25,6.11l-5.24,0.66
	c-0.49-1.77-1.35-3.08-2.65-3.99c-1.29-0.86-2.83-1.31-4.62-1.31c-2.77,0-4.99,0.81-6.65,2.37c-1.73,1.62-2.59,4.14-2.59,7.62
	c0,3.53,0.8,6.06,2.46,7.67c1.66,1.57,3.82,2.37,6.47,2.37c2.09,0,3.88-0.55,5.3-1.62C343.08,347.67,344,346.05,344.37,343.83z"/>
<path fill="none" stroke="#00AEEF" stroke-width="0.216" stroke-miterlimit="2.6131" d="M344.37,343.83l5.3,0.61
	c-0.55,2.98-2.03,5.3-4.44,7.02c-2.4,1.67-5.36,2.52-8.81,2.52c-4.37,0-7.88-1.16-10.53-3.53c-2.65-2.32-4-5.65-4-10.05
	c0-2.83,0.55-5.25,1.72-7.37c1.11-2.12,2.9-3.74,5.24-4.8c2.28-1.06,4.87-1.56,7.58-1.56c3.45,0,6.34,0.71,8.5,2.17
	c2.22,1.41,3.63,3.48,4.25,6.11l-5.24,0.66c-0.49-1.77-1.35-3.08-2.65-3.99c-1.29-0.86-2.83-1.31-4.62-1.31
	c-2.77,0-4.99,0.81-6.65,2.37c-1.73,1.62-2.59,4.14-2.59,7.62c0,3.53,0.8,6.06,2.46,7.67c1.66,1.57,3.82,2.37,6.47,2.37
	c2.09,0,3.88-0.55,5.3-1.62C343.08,347.67,344,346.05,344.37,343.83z"/>
<line fill="none" stroke="#000000" stroke-width="2.4999" stroke-miterlimit="2.6131" x1="214.84" y1="329.5" x2="227.29" y2="313.59"/>
<line fill="none" stroke="#000000" stroke-width="2.4999" stroke-miterlimit="2.6131" x1="218.12" y1="317.93" x2="235.41" y2="297.42"/>
<line fill="none" stroke="#000000" stroke-width="2.4999" stroke-miterlimit="2.6131" x1="227.05" y1="300.86" x2="233.74" y2="292.91"/>
<line fill="none" stroke="#000000" stroke-width="2.4999" stroke-miterlimit="2.6131" x1="230.7" y1="309.39" x2="238.3" y2="300.05"/>
<line fill="none" stroke="#000000" stroke-width="2.4999" stroke-miterlimit="2.6131" x1="216.28" y1="333.58" x2="238.69" y2="306.1"/>
<line fill="none" stroke="#000000" stroke-width="2.4999" stroke-miterlimit="2.6131" x1="234.1" y1="319.25" x2="243.67" y2="306.89"/>
<line fill="none" stroke="#000000" stroke-width="2.4999" stroke-miterlimit="2.6131" x1="235.54" y1="324.24" x2="243.28" y2="314.38"/>
<line fill="none" stroke="#000000" stroke-width="2.4999" stroke-miterlimit="2.6131" x1="224.67" y1="330.16" x2="230.83" y2="321.88"/>
<line fill="none" stroke="#000000" stroke-width="2.4999" stroke-miterlimit="2.6131" x1="237.64" y1="328.71" x2="244.45" y2="320.43"/>
<line fill="none" stroke="#000000" stroke-width="2.4999" stroke-miterlimit="2.6131" x1="230.96" y1="340.41" x2="236.46" y2="332.66"/>
<line fill="none" stroke="#000000" stroke-width="2.4999" stroke-miterlimit="2.6131" x1="248.39" y1="324.51" x2="231.61" y2="345.8"/>
<line fill="none" stroke="#000000" stroke-width="2.4999" stroke-miterlimit="2.6131" x1="213.79" y1="335.02" x2="207.11" y2="343.96"/>
<line fill="none" stroke="#000000" stroke-width="2.4999" stroke-miterlimit="2.6131" x1="220.61" y1="334.1" x2="218.51" y2="336.86"/>
<line fill="none" stroke="#000000" stroke-width="2.4999" stroke-miterlimit="2.6131" x1="226.77" y1="333.18" x2="208.42" y2="356.71"/>
<line fill="none" stroke="#000000" stroke-width="2.4999" stroke-miterlimit="2.6131" x1="200.3" y1="360" x2="215.1" y2="341.2"/>
<line fill="none" stroke="#000000" stroke-width="2.4999" stroke-miterlimit="2.6131" x1="210.52" y1="360.66" x2="217.2" y2="351.72"/>
<line fill="none" stroke="#000000" stroke-width="2.4999" stroke-miterlimit="2.6131" x1="223.1" y1="344.49" x2="229.78" y2="335.94"/>
<line fill="none" stroke="#000000" stroke-width="2.4999" stroke-miterlimit="2.6131" x1="236.99" y1="346.2" x2="242.62" y2="339.23"/>
<line fill="none" stroke="#000000" stroke-width="2.4999" stroke-miterlimit="2.6131" x1="245.37" y1="335.02" x2="253.5" y2="324.9"/>
<line fill="none" stroke="#000000" stroke-width="2.4999" stroke-miterlimit="2.6131" x1="243.8" y1="344.23" x2="253.23" y2="332.53"/>
<line fill="none" stroke="#000000" stroke-width="2.4999" stroke-miterlimit="2.6131" x1="245.37" y1="349.35" x2="252.58" y2="340.15"/>
<line fill="none" stroke="#000000" stroke-width="2.4999" stroke-miterlimit="2.6131" x1="245.63" y1="355.27" x2="251.53" y2="347.25"/>
<line fill="none" stroke="#000000" stroke-width="2.4999" stroke-miterlimit="2.6131" x1="251.92" y1="353.17" x2="257.95" y2="345.28"/>
<line fill="none" stroke="#000000" stroke-width="2.4999" stroke-miterlimit="2.6131" x1="251.79" y1="359.74" x2="259.26" y2="350.27"/>
<line fill="none" stroke="#000000" stroke-width="2.4999" stroke-miterlimit="2.6131" x1="257.69" y1="359.87" x2="262.01" y2="354.74"/>
<path fill-rule="evenodd" d="M216.92,333.95c-0.73,1.16-2.01,0-1.12-0.96L216.92,333.95z"/>
<path fill="none" stroke="#000000" stroke-width="0.9998" stroke-miterlimit="2.6131" d="M216.92,333.95
	c-0.73,1.16-2.01,0-1.12-0.96L216.92,333.95z"/>
<path fill-rule="evenodd" d="M225.37,330.48c-0.84,1.12-2.01,0.08-1.15-0.99L225.37,330.48z"/>
<path fill="none" stroke="#000000" stroke-width="0.9998" stroke-miterlimit="2.6131" d="M225.37,330.48
	c-0.84,1.12-2.01,0.08-1.15-0.99L225.37,330.48z"/>
<path fill-rule="evenodd" d="M218.86,318.23c-0.83,1.08-2.12,0.03-1.12-1L218.86,318.23z"/>
<path fill="none" stroke="#000000" stroke-width="0.9998" stroke-miterlimit="2.6131" d="M218.86,318.23
	c-0.83,1.08-2.12,0.03-1.12-1L218.86,318.23z"/>
<path fill-rule="evenodd" d="M215.52,329.86c-0.82,1.15-2.1,0.01-1.13-1L215.52,329.86z"/>
<path fill="none" stroke="#000000" stroke-width="0.9998" stroke-miterlimit="2.6131" d="M215.52,329.86c-0.82,1.15-2.1,0.01-1.13-1
	L215.52,329.86z"/>
<path fill-rule="evenodd" d="M219.11,337.3c-0.74,1.17-2.04,0.14-1.19-0.94L219.11,337.3z"/>
<path fill="none" stroke="#000000" stroke-width="0.9998" stroke-miterlimit="2.6131" d="M219.11,337.3
	c-0.74,1.17-2.04,0.14-1.19-0.94L219.11,337.3z"/>
<path fill-rule="evenodd" d="M223.71,344.94c-0.94,1.06-2,0.08-1.15-0.99L223.71,344.94z"/>
<path fill="none" stroke="#000000" stroke-width="0.9998" stroke-miterlimit="2.6131" d="M223.71,344.94
	c-0.94,1.06-2,0.08-1.15-0.99L223.71,344.94z"/>
<path fill-rule="evenodd" d="M232.32,346.14c-0.99,1.18-2.02,0.06-1.16-0.98L232.32,346.14z"/>
<path fill="none" stroke="#000000" stroke-width="0.9998" stroke-miterlimit="2.6131" d="M232.32,346.14
	c-0.99,1.18-2.02,0.06-1.16-0.98L232.32,346.14z"/>
<path fill-rule="evenodd" d="M231.6,340.8c-0.82,1.28-2.01,0.11-1.16-0.97L231.6,340.8z"/>
<path fill="none" stroke="#000000" stroke-width="0.9998" stroke-miterlimit="2.6131" d="M231.6,340.8
	c-0.82,1.28-2.01,0.11-1.16-0.97L231.6,340.8z"/>
<path fill-rule="evenodd" d="M237.57,346.66c-0.94,1.06-1.98,0.09-1.13-0.99L237.57,346.66z"/>
<path fill="none" stroke="#000000" stroke-width="0.9998" stroke-miterlimit="2.6131" d="M237.57,346.66
	c-0.94,1.06-1.98,0.09-1.13-0.99L237.57,346.66z"/>
<path fill-rule="evenodd" d="M246.37,355.7c-0.99,1.34-2.33,0.21-1.32-1.06L246.37,355.7z"/>
<path fill="none" stroke="#000000" stroke-width="0.9998" stroke-miterlimit="2.6131" d="M246.37,355.7
	c-0.99,1.34-2.33,0.21-1.32-1.06L246.37,355.7z"/>
<path fill-rule="evenodd" d="M252.47,360.09c-1,1.27-2.15,0.12-1.12-1.04L252.47,360.09z"/>
<path fill="none" stroke="#000000" stroke-width="0.9998" stroke-miterlimit="2.6131" d="M252.47,360.09
	c-1,1.27-2.15,0.12-1.12-1.04L252.47,360.09z"/>
<path fill-rule="evenodd" d="M252.62,353.5c-0.79,1.12-2.08,0.05-1.15-0.97L252.62,353.5z"/>
<path fill="none" stroke="#000000" stroke-width="0.9998" stroke-miterlimit="2.6131" d="M252.62,353.5
	c-0.79,1.12-2.08,0.05-1.15-0.97L252.62,353.5z"/>
<path fill-rule="evenodd" d="M258.39,360.19c-0.9,1.23-2.15,0.09-1.09-1L258.39,360.19z"/>
<path fill="none" stroke="#000000" stroke-width="0.9998" stroke-miterlimit="2.6131" d="M258.39,360.19c-0.9,1.23-2.15,0.09-1.09-1
	L258.39,360.19z"/>
<path fill-rule="evenodd" d="M261.29,354.43c0.96-1.21,2.2-0.19,1.23,0.83L261.29,354.43z"/>
<path fill="none" stroke="#000000" stroke-width="0.9998" stroke-miterlimit="2.6131" d="M261.29,354.43
	c0.96-1.21,2.2-0.19,1.23,0.83L261.29,354.43z"/>
<path fill-rule="evenodd" d="M258.58,349.97c0.74-1.31,2.13-0.3,1.24,0.81L258.58,349.97z"/>
<path fill="none" stroke="#000000" stroke-width="0.9998" stroke-miterlimit="2.6131" d="M258.58,349.97
	c0.74-1.31,2.13-0.3,1.24,0.81L258.58,349.97z"/>
<path fill-rule="evenodd" d="M257.28,344.91c1.02-1.39,2.07-0.15,1.19,0.92L257.28,344.91z"/>
<path fill="none" stroke="#000000" stroke-width="0.9998" stroke-miterlimit="2.6131" d="M257.28,344.91
	c1.02-1.39,2.07-0.15,1.19,0.92L257.28,344.91z"/>
<path fill-rule="evenodd" d="M250.73,347.03c0.72-1.15,2.11-0.18,1.26,0.85L250.73,347.03z"/>
<path fill="none" stroke="#000000" stroke-width="0.9998" stroke-miterlimit="2.6131" d="M250.73,347.03
	c0.72-1.15,2.11-0.18,1.26,0.85L250.73,347.03z"/>
<path fill-rule="evenodd" d="M216.39,351.52c0.81-1.4,2.44-0.45,1.26,0.83L216.39,351.52z"/>
<path fill="none" stroke="#000000" stroke-width="0.9998" stroke-miterlimit="2.6131" d="M216.39,351.52
	c0.81-1.4,2.44-0.45,1.26,0.83L216.39,351.52z"/>
<path fill-rule="evenodd" d="M214.43,340.86c0.72-0.98,2.07-0.06,1.17,0.96L214.43,340.86z"/>
<path fill="none" stroke="#000000" stroke-width="0.9998" stroke-miterlimit="2.6131" d="M214.43,340.86
	c0.72-0.98,2.07-0.06,1.17,0.96L214.43,340.86z"/>
<path fill-rule="evenodd" d="M213.14,334.63c0.83-1.09,1.99-0.2,1.25,0.86L213.14,334.63z"/>
<path fill="none" stroke="#000000" stroke-width="0.9998" stroke-miterlimit="2.6131" d="M213.14,334.63
	c0.83-1.09,1.99-0.2,1.25,0.86L213.14,334.63z"/>
<path fill-rule="evenodd" d="M219.87,333.82c0.87-1.15,2.09-0.27,1.31,0.76L219.87,333.82z"/>
<path fill="none" stroke="#000000" stroke-width="0.9998" stroke-miterlimit="2.6131" d="M219.87,333.82
	c0.87-1.15,2.09-0.27,1.31,0.76L219.87,333.82z"/>
<path fill-rule="evenodd" d="M226.07,332.81c0.78-1.15,2-0.25,1.27,0.85L226.07,332.81z"/>
<path fill="none" stroke="#000000" stroke-width="0.9998" stroke-miterlimit="2.6131" d="M226.07,332.81c0.78-1.15,2-0.25,1.27,0.85
	L226.07,332.81z"/>
<path fill-rule="evenodd" d="M229.11,335.58c0.94-1.14,2.01-0.26,1.23,0.86L229.11,335.58z"/>
<path fill="none" stroke="#000000" stroke-width="0.9998" stroke-miterlimit="2.6131" d="M229.11,335.58
	c0.94-1.14,2.01-0.26,1.23,0.86L229.11,335.58z"/>
<path fill-rule="evenodd" d="M251.81,339.89c0.89-1.27,2.08-0.52,1.36,0.7L251.81,339.89z"/>
<path fill="none" stroke="#000000" stroke-width="0.9998" stroke-miterlimit="2.6131" d="M251.81,339.89
	c0.89-1.27,2.08-0.52,1.36,0.7L251.81,339.89z"/>
<path fill-rule="evenodd" d="M230.12,321.57c0.74-1.14,2.03-0.23,1.25,0.83L230.12,321.57z"/>
<path fill="none" stroke="#000000" stroke-width="0.9998" stroke-miterlimit="2.6131" d="M230.12,321.57
	c0.74-1.14,2.03-0.23,1.25,0.83L230.12,321.57z"/>
<path fill-rule="evenodd" d="M233.03,292.61c0.8-0.92,1.83-0.12,1.17,0.79L233.03,292.61z"/>
<path fill="none" stroke="#000000" stroke-width="0.9998" stroke-miterlimit="2.6131" d="M233.03,292.61
	c0.8-0.92,1.83-0.12,1.17,0.79L233.03,292.61z"/>
<path fill-rule="evenodd" d="M209.13,357.01c-0.81,1.15-2,0.03-1.11-1.02L209.13,357.01z"/>
<path fill="none" stroke="#000000" stroke-width="0.9998" stroke-miterlimit="2.6131" d="M209.13,357.01
	c-0.81,1.15-2,0.03-1.11-1.02L209.13,357.01z"/>
<path fill-rule="evenodd" d="M200.86,360.49c-0.94,1.06-1.95,0.05-1.1-1.03L200.86,360.49z"/>
<path fill="none" stroke="#000000" stroke-width="0.9998" stroke-miterlimit="2.6131" d="M200.86,360.49
	c-0.94,1.06-1.95,0.05-1.1-1.03L200.86,360.49z"/>
<path fill-rule="evenodd" d="M211.08,361.16c-0.84,1.14-1.97,0.26-1.21-0.89L211.08,361.16z"/>
<path fill="none" stroke="#000000" stroke-width="0.9998" stroke-miterlimit="2.6131" d="M211.08,361.16
	c-0.84,1.14-1.97,0.26-1.21-0.89L211.08,361.16z"/>
<path fill-rule="evenodd" d="M207.67,344.45c-0.9,1.09-1.94,0.08-1.12-1.02L207.67,344.45z"/>
<path fill="none" stroke="#000000" stroke-width="0.9998" stroke-miterlimit="2.6131" d="M207.67,344.45
	c-0.9,1.09-1.94,0.08-1.12-1.02L207.67,344.45z"/>
<path fill-rule="evenodd" d="M238.33,329.09c-1,1.12-2.12,0.08-1.15-1.01L238.33,329.09z"/>
<path fill="none" stroke="#000000" stroke-width="0.9998" stroke-miterlimit="2.6131" d="M238.33,329.09
	c-1,1.12-2.12,0.08-1.15-1.01L238.33,329.09z"/>
<path fill-rule="evenodd" d="M234.86,319.5c-0.72,1-1.98,0.09-1.25-0.85L234.86,319.5z"/>
<path fill="none" stroke="#000000" stroke-width="0.9998" stroke-miterlimit="2.6131" d="M234.86,319.5c-0.72,1-1.98,0.09-1.25-0.85
	L234.86,319.5z"/>
<path fill-rule="evenodd" d="M236.21,324.62c-0.81,1.09-2.01,0.09-1.16-0.99L236.21,324.62z"/>
<path fill="none" stroke="#000000" stroke-width="0.9998" stroke-miterlimit="2.6131" d="M236.21,324.62
	c-0.81,1.09-2.01,0.09-1.16-0.99L236.21,324.62z"/>
<path fill-rule="evenodd" d="M238.05,305.81c0.8-0.92,1.83-0.12,1.17,0.79L238.05,305.81z"/>
<path fill="none" stroke="#000000" stroke-width="0.9998" stroke-miterlimit="2.6131" d="M238.05,305.81
	c0.8-0.92,1.83-0.12,1.17,0.79L238.05,305.81z"/>
<path fill-rule="evenodd" d="M234.73,297.16c0.8-0.92,1.83-0.12,1.17,0.79L234.73,297.16z"/>
<path fill="none" stroke="#000000" stroke-width="0.9998" stroke-miterlimit="2.6131" d="M234.73,297.16
	c0.8-0.92,1.83-0.12,1.17,0.79L234.73,297.16z"/>
<path fill-rule="evenodd" d="M237.63,299.68c0.8-0.92,1.83-0.12,1.17,0.79L237.63,299.68z"/>
<path fill="none" stroke="#000000" stroke-width="0.9998" stroke-miterlimit="2.6131" d="M237.63,299.68
	c0.8-0.92,1.83-0.12,1.17,0.79L237.63,299.68z"/>
<path fill-rule="evenodd" d="M242.96,306.63c0.8-0.92,1.83-0.12,1.17,0.79L242.96,306.63z"/>
<path fill="none" stroke="#000000" stroke-width="0.9998" stroke-miterlimit="2.6131" d="M242.96,306.63
	c0.8-0.92,1.83-0.12,1.17,0.79L242.96,306.63z"/>
<path fill-rule="evenodd" d="M242.63,314.07c0.8-0.92,1.83-0.12,1.17,0.79L242.63,314.07z"/>
<path fill="none" stroke="#000000" stroke-width="0.9998" stroke-miterlimit="2.6131" d="M242.63,314.07
	c0.8-0.92,1.83-0.12,1.17,0.79L242.63,314.07z"/>
<path fill-rule="evenodd" d="M243.87,320c0.8-0.92,1.83-0.12,1.17,0.79L243.87,320z"/>
<path fill="none" stroke="#000000" stroke-width="0.9998" stroke-miterlimit="2.6131" d="M243.87,320c0.8-0.92,1.83-0.12,1.17,0.79
	L243.87,320z"/>
<path fill-rule="evenodd" d="M247.66,324.22c0.8-0.92,1.83-0.12,1.17,0.79L247.66,324.22z"/>
<path fill="none" stroke="#000000" stroke-width="0.9998" stroke-miterlimit="2.6131" d="M247.66,324.22
	c0.8-0.92,1.83-0.12,1.17,0.79L247.66,324.22z"/>
<path fill-rule="evenodd" d="M252.84,324.49c0.8-0.92,1.83-0.12,1.17,0.79L252.84,324.49z"/>
<path fill="none" stroke="#000000" stroke-width="0.9998" stroke-miterlimit="2.6131" d="M252.84,324.49
	c0.8-0.92,1.83-0.12,1.17,0.79L252.84,324.49z"/>
<path fill-rule="evenodd" d="M252.54,332.34c0.8-0.92,1.83-0.12,1.17,0.79L252.54,332.34z"/>
<path fill="none" stroke="#000000" stroke-width="0.9998" stroke-miterlimit="2.6131" d="M252.54,332.34
	c0.8-0.92,1.83-0.12,1.17,0.79L252.54,332.34z"/>
<path fill-rule="evenodd" d="M245.76,350.17c-0.99,1.34-2.33,0.21-1.32-1.06L245.76,350.17z"/>
<path fill="none" stroke="#000000" stroke-width="0.9998" stroke-miterlimit="2.6131" d="M245.76,350.17
	c-0.99,1.34-2.33,0.21-1.32-1.06L245.76,350.17z"/>
<path fill-rule="evenodd" d="M244.62,344.64c-0.99,1.34-2.33,0.21-1.32-1.06L244.62,344.64z"/>
<path fill="none" stroke="#000000" stroke-width="0.9998" stroke-miterlimit="2.6131" d="M244.62,344.64
	c-0.99,1.34-2.33,0.21-1.32-1.06L244.62,344.64z"/>
<path fill-rule="evenodd" d="M241.96,338.81c0.8-0.92,1.83-0.12,1.17,0.79L241.96,338.81z"/>
<path fill="none" stroke="#000000" stroke-width="0.9998" stroke-miterlimit="2.6131" d="M241.96,338.81
	c0.8-0.92,1.83-0.12,1.17,0.79L241.96,338.81z"/>
<path fill-rule="evenodd" d="M235.7,332.54c0.8-0.92,1.83-0.12,1.17,0.79L235.7,332.54z"/>
<path fill="none" stroke="#000000" stroke-width="0.9998" stroke-miterlimit="2.6131" d="M235.7,332.54
	c0.8-0.92,1.83-0.12,1.17,0.79L235.7,332.54z"/>
<path fill-rule="evenodd" d="M226.66,313.22c0.8-0.92,1.83-0.12,1.17,0.79L226.66,313.22z"/>
<path fill="none" stroke="#000000" stroke-width="0.9998" stroke-miterlimit="2.6131" d="M226.66,313.22
	c0.8-0.92,1.83-0.12,1.17,0.79L226.66,313.22z"/>
<path fill-rule="evenodd" d="M231.17,309.96c-0.83,1.08-2.12,0.03-1.12-1L231.17,309.96z"/>
<path fill="none" stroke="#000000" stroke-width="0.9998" stroke-miterlimit="2.6131" d="M231.17,309.96
	c-0.83,1.08-2.12,0.03-1.12-1L231.17,309.96z"/>
<path fill-rule="evenodd" d="M227.5,301.44c-0.83,1.08-2.12,0.03-1.12-1L227.5,301.44z"/>
<path fill="none" stroke="#000000" stroke-width="0.9998" stroke-miterlimit="2.6131" d="M227.5,301.44c-0.83,1.08-2.12,0.03-1.12-1
	L227.5,301.44z"/>
<path fill-rule="evenodd" fill="#2E3192" d="M268.78,376.79c0.03-0.06,0.07-0.13,0.11-0.21c0.04-0.09,0.09-0.19,0.14-0.29
	c0.24-0.42,0.46-0.8,0.68-1.14c0.22-0.33,0.43-0.63,0.63-0.89c0.1-0.14,0.22-0.32,0.37-0.54c0.14-0.22,0.31-0.47,0.51-0.75
	c0.19-0.11,0.4-0.23,0.63-0.37c0.15,0,0.25,0.07,0.32,0.2c0.07,0.13,0.11,0.33,0.11,0.58c0,0.21-0.01,0.45-0.04,0.7
	c-0.02,0.25-0.06,0.51-0.1,0.77c-0.05,0.21-0.09,0.41-0.12,0.6c0,0.05,0.01,0.09,0.02,0.12c0.01,0.02,0.04,0.04,0.08,0.04
	c0.08-0.05,0.24-0.25,0.46-0.58c0.23-0.33,0.53-0.79,0.91-1.39c0.32-0.51,0.6-0.89,0.85-1.14c0.24-0.25,0.43-0.38,0.58-0.38
	c0.16,0,0.27,0.08,0.34,0.25c0.07,0.17,0.11,0.41,0.11,0.73c0,0.47-0.02,0.92-0.07,1.35c-0.05,0.44-0.13,0.85-0.25,1.26
	c-0.02,0.08-0.04,0.14-0.04,0.2c-0.01,0.05-0.01,0.1-0.01,0.15c0,0.05,0.03,0.1,0.1,0.15c0.04-0.06,0.09-0.13,0.15-0.23
	c0.05-0.1,0.12-0.23,0.19-0.38c0.12-0.15,0.25-0.29,0.37-0.44c0.12-0.15,0.26-0.3,0.4-0.45c0.15-0.17,0.3-0.3,0.46-0.39
	c0.16-0.09,0.31-0.13,0.46-0.13c0.03,0,0.05,0.01,0.08,0.03c0.03,0.02,0.05,0.05,0.08,0.08c0.12,0.15,0.22,0.3,0.3,0.42
	c0.08,0.13,0.14,0.24,0.17,0.33c0.21,0.62,0.39,1.08,0.56,1.38c0.16,0.3,0.31,0.45,0.43,0.45c0.03,0,0.05-0.01,0.08-0.03
	c0.03-0.02,0.05-0.04,0.08-0.07c0.12,0.38,0.23,0.73,0.31,1.07c-0.19,0.22-0.36,0.38-0.51,0.49c-0.15,0.11-0.28,0.17-0.39,0.17
	c-0.37,0-0.75-0.34-1.14-1.04c-0.39-0.69-0.69-1.03-0.9-1.03c-0.28,0-0.74,0.59-1.38,1.78c-0.65,1.19-1.05,1.78-1.21,1.78
	c-0.08,0-0.19-0.01-0.32-0.04c-0.04-0.02-0.07-0.07-0.1-0.15c-0.02-0.07-0.03-0.16-0.03-0.26c0-0.12,0.02-0.27,0.05-0.46
	c0.03-0.19,0.07-0.41,0.13-0.67c0.07-0.32,0.13-0.58,0.17-0.77c0.04-0.19,0.07-0.33,0.07-0.4c0.02-0.1,0.04-0.3,0.07-0.59
	c0.03-0.29,0.07-0.68,0.12-1.17c0-0.08-0.02-0.15-0.05-0.19c-0.03-0.05-0.07-0.07-0.11-0.07c-0.04,0-0.08,0.02-0.13,0.05
	c-0.04,0.04-0.1,0.09-0.16,0.17c-0.06,0.1-0.13,0.2-0.21,0.3c-0.08,0.1-0.2,0.24-0.37,0.43c-0.19,0.31-0.38,0.62-0.58,0.94
	c-0.19,0.32-0.39,0.64-0.6,0.97c-0.32,0.54-0.58,0.94-0.77,1.2c-0.19,0.26-0.31,0.39-0.37,0.39c-0.16,0-0.28-0.03-0.36-0.08
	c-0.08-0.06-0.12-0.14-0.12-0.24c0-0.25,0.1-0.78,0.28-1.59c0.19-0.81,0.28-1.37,0.28-1.7c0-0.06-0.01-0.1-0.04-0.13
	c-0.02-0.04-0.05-0.05-0.09-0.05c-0.07,0-0.14,0.05-0.23,0.15c-0.09,0.1-0.19,0.27-0.3,0.49c-0.07,0.12-0.16,0.26-0.27,0.42
	c-0.11,0.16-0.24,0.35-0.39,0.56c-0.01,0.06-0.04,0.12-0.06,0.18c-0.03,0.06-0.05,0.11-0.09,0.17c-0.02-0.11-0.06-0.26-0.11-0.43
	C268.94,377.25,268.87,377.04,268.78,376.79z M262.11,376.79c0.02-0.02,0.04-0.05,0.05-0.08c0.01-0.03,0.02-0.07,0.02-0.11
	c0.09-0.11,0.19-0.26,0.31-0.44c0.12-0.19,0.25-0.41,0.39-0.66c0.12-0.23,0.24-0.46,0.36-0.69c0.13-0.23,0.26-0.46,0.4-0.69
	c0.12-0.23,0.23-0.47,0.35-0.72c0.11-0.25,0.24-0.5,0.37-0.73c0.21-0.15,0.38-0.25,0.5-0.32c0.12-0.06,0.2-0.09,0.24-0.09
	c0.08,0,0.14,0.04,0.19,0.11c0.04,0.07,0.06,0.18,0.06,0.32c0,0.05-0.01,0.11-0.02,0.2c-0.02,0.09-0.03,0.18-0.05,0.28
	c-0.04,0.15-0.08,0.31-0.13,0.47c-0.04,0.27-0.09,0.54-0.15,0.81c-0.06,0.27-0.11,0.54-0.17,0.8c-0.05,0.33-0.1,0.64-0.13,0.91
	c-0.03,0.28-0.04,0.53-0.04,0.77c0,0.43,0.01,0.75,0.04,0.96c0.03,0.21,0.07,0.3,0.13,0.28c0.05-0.04,0.12-0.1,0.2-0.17
	c0.08-0.07,0.17-0.14,0.28-0.23c0.1-0.15,0.21-0.33,0.33-0.54c0.12-0.22,0.27-0.47,0.43-0.77c0.1-0.21,0.2-0.43,0.3-0.64
	c0.04-0.06,0.08-0.13,0.13-0.22c0.05-0.08,0.1-0.17,0.14-0.25c0.1-0.37,0.22-0.65,0.34-0.83c0.13-0.18,0.27-0.27,0.42-0.27
	c0.14,0,0.25,0.03,0.33,0.08c0.08,0.05,0.14,0.13,0.17,0.23c0.02,0.05,0.03,0.15,0.04,0.28c0.01,0.13,0.02,0.3,0.02,0.52
	c0,0.08,0.01,0.21,0.04,0.37c0.02,0.16,0.04,0.28,0.04,0.36c0,0.28,0.03,0.5,0.1,0.64c0.07,0.15,0.17,0.22,0.32,0.22
	c0.04,0,0.09-0.02,0.15-0.04c0.06-0.03,0.11-0.06,0.17-0.09l0.33,1.07c-0.32,0.28-0.58,0.49-0.79,0.64
	c-0.21,0.15-0.36,0.22-0.46,0.22c-0.27,0-0.48-0.1-0.66-0.3c-0.17-0.2-0.3-0.5-0.37-0.89c-0.01-0.09-0.04-0.19-0.07-0.28
	c-0.04-0.09-0.08-0.19-0.13-0.28c-0.05,0.08-0.1,0.17-0.16,0.28c-0.06,0.11-0.13,0.21-0.19,0.32c-0.14,0.25-0.29,0.5-0.43,0.75
	c-0.14,0.24-0.29,0.49-0.44,0.72c-0.19,0.32-0.37,0.55-0.56,0.69c-0.19,0.14-0.37,0.21-0.53,0.21c-0.24,0-0.44-0.11-0.59-0.32
	c-0.15-0.21-0.25-0.53-0.29-0.94c-0.05-0.4-0.08-0.71-0.1-0.94c-0.02-0.23-0.02-0.36-0.01-0.41c-0.01-0.22-0.02-0.39-0.04-0.51
	c-0.02-0.11-0.05-0.17-0.08-0.17l-0.05,0.04l-0.46,0.67c-0.02,0.05-0.04,0.12-0.08,0.2c-0.04,0.08-0.09,0.18-0.15,0.29
	c-0.02-0.11-0.06-0.26-0.11-0.43C262.27,377.25,262.2,377.04,262.11,376.79z M261.43,366.1c-0.06,0-0.17,0.15-0.35,0.46
	c-0.17,0.3-0.4,0.75-0.67,1.35c-0.15,0.33-0.31,0.66-0.45,0.99c-0.15,0.33-0.3,0.65-0.44,0.97c-0.06,0.09-0.11,0.18-0.14,0.28
	c-0.03,0.09-0.04,0.19-0.04,0.29c-0.11,0.43-0.21,0.84-0.31,1.22c-0.1,0.41-0.17,0.72-0.24,0.95c-0.06,0.22-0.1,0.36-0.11,0.39
	l0.04,0.06c0.11-0.14,0.2-0.28,0.27-0.44c0.11-0.18,0.24-0.41,0.39-0.69c0.15-0.28,0.32-0.61,0.51-0.99
	c0.19-0.36,0.39-0.81,0.59-1.35c0.2-0.54,0.42-1.17,0.66-1.88c0.13-0.39,0.23-0.69,0.3-0.93c0.07-0.23,0.1-0.39,0.1-0.49
	c0-0.05-0.01-0.1-0.02-0.13C261.5,366.12,261.47,366.1,261.43,366.1z M256.23,376.79c0.12-0.15,0.21-0.26,0.27-0.34
	c0.07-0.09,0.12-0.16,0.16-0.22c0.08-0.11,0.16-0.23,0.21-0.33c0.05-0.11,0.08-0.2,0.09-0.29c0.05-0.26,0.1-0.59,0.17-0.98
	c0.07-0.39,0.15-0.85,0.25-1.37c0.05-0.15,0.1-0.35,0.16-0.58c0.05-0.24,0.11-0.5,0.18-0.79c0.07-0.38,0.14-0.73,0.24-1.05
	c0.1-0.32,0.2-0.6,0.32-0.86c0.04-0.07,0.07-0.15,0.11-0.26c0.04-0.11,0.07-0.23,0.11-0.37c0.04-0.12,0.09-0.27,0.16-0.43
	c0.07-0.17,0.14-0.36,0.23-0.58c0.22-0.46,0.41-0.86,0.57-1.19c0.16-0.33,0.3-0.6,0.41-0.8c0.19-0.33,0.38-0.64,0.58-0.93
	c0.19-0.29,0.39-0.56,0.59-0.8c0.18-0.23,0.34-0.39,0.47-0.49c0.13-0.11,0.24-0.16,0.32-0.16c0.07,0.09,0.13,0.18,0.16,0.25
	c0.04,0,0.07,0,0.11-0.02c0.14,0,0.24,0.08,0.3,0.24c0.06,0.16,0.1,0.4,0.1,0.72c0,0.07-0.01,0.16-0.02,0.27
	c-0.02,0.11-0.04,0.25-0.06,0.41c-0.04,0.06-0.06,0.12-0.08,0.21c-0.02,0.08-0.03,0.17-0.04,0.25c-0.01,0.11-0.01,0.2-0.02,0.28
	c-0.01,0.07-0.02,0.15-0.04,0.21c-0.07,0.19-0.14,0.41-0.22,0.68c-0.08,0.26-0.16,0.58-0.25,0.93c-0.05,0.13-0.12,0.3-0.2,0.52
	c-0.08,0.22-0.18,0.45-0.29,0.72c-0.05,0.15-0.12,0.33-0.21,0.55c-0.08,0.22-0.19,0.47-0.31,0.76c-0.03,0.11-0.09,0.22-0.17,0.35
	c-0.08,0.13-0.17,0.28-0.28,0.45c-0.03,0.12-0.12,0.34-0.27,0.64c-0.14,0.3-0.35,0.69-0.61,1.17c-0.13,0.24-0.29,0.53-0.5,0.89
	c-0.2,0.36-0.44,0.78-0.7,1.26c-0.1,0.58-0.18,1.09-0.23,1.54c-0.05,0.45-0.08,0.84-0.08,1.17c0,0.13,0.01,0.23,0.02,0.3
	c0.01,0.06,0.04,0.1,0.07,0.1c0.03-0.06,0.07-0.12,0.12-0.19c0.05-0.07,0.1-0.15,0.16-0.24c0.1-0.13,0.22-0.37,0.36-0.73
	c0.14-0.36,0.29-0.81,0.47-1.38c0.16-0.51,0.29-0.9,0.42-1.17c0.12-0.28,0.22-0.44,0.31-0.49l0.28-0.17
	c0.05-0.03,0.1-0.06,0.15-0.08c0.04-0.02,0.08-0.04,0.1-0.04c0.07,0,0.13,0.06,0.19,0.19c0.06,0.12,0.11,0.29,0.14,0.51
	c0.07,0.39,0.13,0.69,0.17,0.91c0.04,0.21,0.07,0.34,0.07,0.37c0.07,0.23,0.15,0.4,0.25,0.51c0.1,0.11,0.22,0.16,0.35,0.16
	c0.17-0.04,0.36-0.09,0.58-0.16c0.04,0.15,0.1,0.32,0.15,0.5c0.06,0.18,0.11,0.37,0.17,0.57c-0.13,0.12-0.26,0.24-0.39,0.36
	c-0.13,0.11-0.26,0.23-0.39,0.35c-0.09,0.07-0.21,0.12-0.37,0.16c-0.16,0.04-0.35,0.05-0.56,0.05c-0.33,0-0.58-0.22-0.76-0.67
	c-0.18-0.44-0.28-0.66-0.32-0.65h-0.05c-0.08,0.15-0.17,0.31-0.27,0.47c-0.1,0.16-0.19,0.33-0.28,0.51
	c-0.06,0.18-0.14,0.38-0.25,0.62c-0.11,0.23-0.24,0.49-0.38,0.77c-0.18,0.31-0.33,0.54-0.46,0.69c-0.13,0.15-0.25,0.23-0.34,0.23
	c-0.2,0-0.36-0.03-0.48-0.1c-0.12-0.07-0.18-0.17-0.21-0.3c-0.06-0.43-0.11-0.81-0.15-1.13c-0.03-0.32-0.05-0.59-0.05-0.82
	c0-0.07,0-0.13,0.01-0.19c0.01-0.06,0.01-0.1,0.02-0.15c0.02-0.1,0.04-0.21,0.05-0.32c0-0.04-0.01-0.07-0.02-0.09
	c-0.01-0.02-0.04-0.03-0.07-0.03c-0.02,0.03-0.04,0.07-0.06,0.11c-0.03,0.04-0.06,0.08-0.11,0.13c-0.02-0.1-0.06-0.24-0.11-0.42
	C256.39,377.26,256.32,377.04,256.23,376.79z M246.79,376.79c0.09-0.16,0.17-0.33,0.26-0.51c0.39-0.46,0.71-0.91,0.96-1.33
	c0.25-0.43,0.43-0.83,0.54-1.2l-0.08-0.56c0.07-0.19,0.24-0.42,0.52-0.68c0.27-0.26,0.5-0.39,0.67-0.39c0.18,0,0.34,0.08,0.46,0.23
	c0.12,0.15,0.25,0.32,0.36,0.48c0.06,0.06,0.1,0.1,0.13,0.13c0.21,0.23,0.37,0.55,0.48,0.96c0.11,0.41,0.16,0.9,0.16,1.49
	c0,0.31-0.08,0.75-0.25,1.32c-0.16,0.58-0.25,1.01-0.25,1.3c0,0.04,0.01,0.07,0.03,0.09c0.02,0.02,0.04,0.04,0.07,0.04
	c0.07,0,0.15-0.04,0.25-0.13c0.1-0.09,0.2-0.21,0.31-0.36c0.28-0.4,0.45-0.62,0.51-0.66c0.06-0.04,0.13-0.11,0.22-0.22
	c0.04,0.15,0.1,0.32,0.16,0.5c0.06,0.18,0.12,0.37,0.17,0.57c-0.05,0.06-0.1,0.13-0.16,0.22c-0.06,0.08-0.13,0.18-0.22,0.29
	c-0.18,0.19-0.42,0.43-0.71,0.7c-0.29,0.27-0.64,0.59-1.04,0.94c-0.11,0.1-0.23,0.18-0.37,0.24c-0.22,0-0.39-0.05-0.51-0.15
	c-0.11-0.09-0.17-0.25-0.17-0.47c0-0.09,0.01-0.18,0.04-0.3c0.02-0.11,0.06-0.23,0.1-0.36c0.03-0.1,0.07-0.2,0.1-0.31
	c0.04-0.1,0.07-0.21,0.1-0.32c0.11-0.49,0.21-0.94,0.27-1.35c0.06-0.41,0.09-0.79,0.09-1.12c0-0.41-0.04-0.72-0.13-0.94
	c-0.09-0.21-0.22-0.34-0.4-0.37c-0.12,0.09-0.25,0.22-0.39,0.39c-0.14,0.17-0.28,0.38-0.42,0.64c-0.15,0.28-0.29,0.51-0.42,0.68
	c-0.12,0.18-0.22,0.3-0.3,0.36c-0.05,0.11-0.13,0.25-0.23,0.39c-0.11,0.15-0.25,0.3-0.42,0.47c-0.01,0.03-0.03,0.07-0.05,0.14
	c-0.02,0.06-0.05,0.13-0.1,0.21c-0.04-0.18-0.09-0.36-0.15-0.53C246.92,377.15,246.86,376.98,246.79,376.79z M244.85,374.69
	c-0.03,0.01-0.07,0.05-0.11,0.12c-0.05,0.07-0.1,0.16-0.15,0.27c-0.08,0.17-0.16,0.37-0.26,0.58c-0.06,0.09-0.12,0.17-0.19,0.21
	c-0.07,0.05-0.14,0.09-0.23,0.11c-0.05,0.01-0.11,0.08-0.17,0.23c-0.06,0.14-0.11,0.35-0.17,0.62c-0.06,0.24-0.1,0.44-0.13,0.61
	c-0.03,0.17-0.04,0.31-0.04,0.43c0,0.21,0.04,0.37,0.11,0.49c0.07,0.11,0.19,0.16,0.34,0.16c0.25,0,0.47-0.1,0.68-0.3
	c0.21-0.2,0.4-0.49,0.58-0.88c0.08-0.15,0.16-0.28,0.24-0.42c0.04-0.04,0.08-0.12,0.1-0.23c0.03-0.1,0.05-0.23,0.08-0.39l0.14-0.66
	c-0.05-0.23-0.09-0.41-0.13-0.55c-0.04-0.13-0.09-0.22-0.13-0.25c-0.03-0.02-0.08-0.05-0.18-0.08
	C245.15,374.75,245.02,374.72,244.85,374.69z M241,376.79c0.04-0.06,0.08-0.12,0.12-0.21c0.04-0.09,0.08-0.19,0.14-0.29l0.62-0.61
	c0.08-0.13,0.19-0.3,0.35-0.5c0.16-0.2,0.35-0.45,0.58-0.74c0.03-0.09,0.07-0.19,0.13-0.3c0.06-0.11,0.13-0.22,0.22-0.33
	c0.07-0.1,0.15-0.19,0.22-0.28c0.07-0.09,0.14-0.18,0.21-0.26c0.08-0.12,0.16-0.23,0.23-0.35c0.07-0.11,0.14-0.23,0.22-0.34
	c0.08-0.11,0.17-0.19,0.26-0.26c0.09-0.06,0.19-0.09,0.3-0.09c0.12,0,0.21,0.02,0.27,0.06c0.06,0.04,0.09,0.1,0.1,0.18
	c-0.05,0.18-0.11,0.36-0.17,0.53l0.05,0.11c0.24-0.13,0.42-0.23,0.55-0.29c0.13-0.06,0.22-0.09,0.26-0.09
	c0.39,0,0.68,0.17,0.88,0.51c0.19,0.34,0.29,0.86,0.29,1.56c0,0.13-0.01,0.29-0.03,0.47c-0.02,0.17-0.05,0.37-0.1,0.58
	c-0.05,0.23-0.11,0.42-0.17,0.58c-0.06,0.16-0.12,0.27-0.17,0.34c0.02,0.09,0.05,0.15,0.07,0.2c0.02,0.04,0.06,0.06,0.1,0.06
	c0.04,0,0.08-0.02,0.13-0.06c0.05-0.04,0.1-0.09,0.16-0.17c0.05,0.17,0.11,0.35,0.16,0.53c0.05,0.18,0.1,0.36,0.16,0.54
	c-0.1,0.12-0.19,0.24-0.28,0.36c-0.09,0.11-0.19,0.23-0.29,0.34c-0.12,0.15-0.24,0.26-0.35,0.32c-0.11,0.07-0.22,0.1-0.32,0.1
	c-0.12,0-0.22-0.04-0.31-0.13c-0.08-0.09-0.14-0.21-0.19-0.36c-0.13,0.26-0.3,0.49-0.48,0.71c-0.19,0.21-0.4,0.39-0.63,0.53
	c-0.13,0.09-0.26,0.17-0.37,0.22c-0.11,0.05-0.21,0.07-0.3,0.07c-0.03,0-0.08,0.02-0.16,0.05c-0.08,0.03-0.14,0.05-0.19,0.05
	c-0.3,0-0.58-0.19-0.82-0.56c-0.25-0.37-0.37-0.79-0.37-1.25c0-0.19,0.03-0.43,0.09-0.74c0.06-0.3,0.09-0.48,0.09-0.54
	s-0.01-0.1-0.04-0.13c-0.02-0.03-0.06-0.05-0.1-0.05c-0.03,0-0.09,0.06-0.19,0.17c-0.1,0.11-0.24,0.28-0.43,0.5
	c-0.02,0.03-0.04,0.08-0.06,0.14c-0.02,0.06-0.05,0.13-0.1,0.21c-0.04-0.18-0.09-0.36-0.15-0.54
	C241.12,377.13,241.06,376.96,241,376.79z M235.86,381.83c-0.03,0-0.05,0-0.08,0c-0.02,0-0.06,0-0.1,0c-0.13,0-0.24-0.06-0.32-0.16
	c-0.09-0.11-0.15-0.28-0.18-0.51c-0.01-0.07-0.02-0.2-0.02-0.39c-0.01-0.19-0.01-0.44-0.01-0.76c0-0.13-0.01-0.33-0.02-0.61
	c-0.02-0.28-0.02-0.48-0.02-0.61c0-0.05,0.01-0.13,0.02-0.24c0.01-0.11,0.02-0.27,0.03-0.47c0.01-0.19,0.02-0.41,0.03-0.67
	c-0.01-0.25-0.03-0.49-0.06-0.73c0.04-0.41,0.08-0.82,0.13-1.25c0.01-0.06,0-0.17-0.01-0.34c-0.01-0.16-0.02-0.27-0.02-0.32
	c0-0.06,0.01-0.13,0.03-0.24c0.02-0.1,0.03-0.19,0.03-0.25c0-0.08-0.01-0.14-0.03-0.19c-0.02-0.05-0.05-0.07-0.08-0.07
	c-0.03,0.02-0.06,0.04-0.09,0.06c-0.04,0.02-0.07,0.04-0.11,0.06c-0.03,0.01-0.07,0.02-0.12,0.04c-0.05,0.02-0.11,0.05-0.18,0.08
	l-0.07-0.07l-0.02-0.11c0.05-0.12,0.1-0.24,0.15-0.36c0.05-0.11,0.1-0.23,0.14-0.35c0.05-0.1,0.11-0.19,0.17-0.26
	c0.07-0.08,0.14-0.15,0.22-0.23c0.06-0.05,0.11-0.17,0.15-0.37c0.04-0.2,0.07-0.49,0.09-0.88c0.02-0.44,0.05-0.8,0.07-1.07
	c0.03-0.28,0.05-0.47,0.08-0.56c0.02-0.09,0.05-0.21,0.08-0.36c0-0.05-0.01-0.12-0.02-0.22c-0.02-0.1-0.02-0.17-0.02-0.21
	c0.04-0.36,0.08-0.7,0.11-1.03c0.07-0.48,0.2-0.96,0.4-1.43c0.2-0.48,0.47-0.98,0.81-1.5c0.35-0.5,0.86-0.86,1.53-1.09
	c0.08,0.02,0.14,0.04,0.2,0.07l0.27-0.14c0.03,0,0.06,0.01,0.1,0.04c0.04,0.02,0.09,0.06,0.16,0.1c0.12-0.06,0.23-0.09,0.32-0.11
	c0.09-0.02,0.16-0.04,0.22-0.04c0.33,0,0.58,0.06,0.74,0.19c0.16,0.13,0.24,0.32,0.24,0.58c0,0.15-0.01,0.31-0.02,0.5
	c-0.01,0.19-0.04,0.39-0.07,0.6c-0.04,0.28-0.08,0.5-0.13,0.64c-0.05,0.14-0.1,0.22-0.16,0.24c-0.14-0.09-0.28-0.18-0.43-0.26
	c-0.14-0.08-0.29-0.17-0.45-0.26l-0.29,0.16c-0.09-0.01-0.19-0.03-0.3-0.06c-0.09,0-0.19,0.01-0.31,0.04
	c-0.11,0.03-0.24,0.06-0.36,0.11c-0.34,0.11-0.53,0.28-0.59,0.48c-0.05,0.2-0.14,0.48-0.27,0.82c-0.04,0.08-0.11,0.39-0.21,0.94
	c-0.09,0.55-0.22,1.33-0.37,2.34c-0.01,0.05-0.02,0.13-0.06,0.24c-0.04,0.11-0.05,0.21-0.05,0.29c0,0.11,0.01,0.19,0.04,0.25
	c0.02,0.06,0.06,0.09,0.1,0.1c0.08-0.06,0.19-0.11,0.32-0.18c0.14-0.06,0.3-0.13,0.49-0.21c0.17-0.03,0.34-0.07,0.51-0.12
	c0.17-0.05,0.36-0.11,0.54-0.19c0.05,0,0.12,0,0.2,0c0.08,0,0.17,0,0.28,0c0.18-0.05,0.37-0.09,0.55-0.14c0.31,0,0.54,0.06,0.7,0.19
	c0.16,0.13,0.23,0.31,0.23,0.54c0,0.04,0,0.16-0.01,0.35c-0.01,0.19-0.02,0.44-0.04,0.76c-0.07,0.18-0.14,0.36-0.22,0.54
	c-0.05,0-0.17-0.03-0.37-0.09c-0.2-0.05-0.48-0.14-0.84-0.26c-0.13,0.04-0.27,0.08-0.42,0.11c-0.15,0.03-0.3,0.04-0.46,0.04
	c-0.1,0-0.25,0.02-0.44,0.07c-0.19,0.05-0.33,0.08-0.43,0.08c-0.07,0.07-0.14,0.13-0.21,0.17c-0.07,0.04-0.14,0.05-0.21,0.05
	c-0.04,0-0.12-0.01-0.25-0.03c-0.07,0-0.14,0.09-0.2,0.27c-0.06,0.18-0.12,0.46-0.17,0.84l-0.08,0.5l0.06,0.36l-0.15,1.38
	c0,0.05,0.01,0.12,0.01,0.19c0.01,0.08,0.01,0.15,0.01,0.23c-0.07,0.62-0.12,1.22-0.15,1.81c-0.03,0.59-0.04,1.18-0.04,1.76
	c0,0.12-0.02,0.25-0.06,0.39C235.99,381.55,235.94,381.69,235.86,381.83z"/>
<path fill="none" stroke="#2E3192" stroke-width="0.216" stroke-miterlimit="2.6131" d="M268.78,376.79
	c0.03-0.06,0.07-0.13,0.11-0.21c0.04-0.09,0.09-0.19,0.14-0.29c0.24-0.42,0.46-0.8,0.68-1.14c0.22-0.33,0.43-0.63,0.63-0.89
	c0.1-0.14,0.22-0.32,0.37-0.54c0.14-0.22,0.31-0.47,0.51-0.75c0.19-0.11,0.4-0.23,0.63-0.37c0.15,0,0.25,0.07,0.32,0.2
	c0.07,0.13,0.11,0.33,0.11,0.58c0,0.21-0.01,0.45-0.04,0.7c-0.02,0.25-0.06,0.51-0.1,0.77c-0.05,0.21-0.09,0.41-0.12,0.6
	c0,0.05,0.01,0.09,0.02,0.12c0.01,0.02,0.04,0.04,0.08,0.04c0.08-0.05,0.24-0.25,0.46-0.58c0.23-0.33,0.53-0.79,0.91-1.39
	c0.32-0.51,0.6-0.89,0.85-1.14c0.24-0.25,0.43-0.38,0.58-0.38c0.16,0,0.27,0.08,0.34,0.25c0.07,0.17,0.11,0.41,0.11,0.73
	c0,0.47-0.02,0.92-0.07,1.35c-0.05,0.44-0.13,0.85-0.25,1.26c-0.02,0.08-0.04,0.14-0.04,0.2c-0.01,0.05-0.01,0.1-0.01,0.15
	c0,0.05,0.03,0.1,0.1,0.15c0.04-0.06,0.09-0.13,0.15-0.23c0.05-0.1,0.12-0.23,0.19-0.38c0.12-0.15,0.25-0.29,0.37-0.44
	c0.12-0.15,0.26-0.3,0.4-0.45c0.15-0.17,0.3-0.3,0.46-0.39c0.16-0.09,0.31-0.13,0.46-0.13c0.03,0,0.05,0.01,0.08,0.03
	c0.03,0.02,0.05,0.05,0.08,0.08c0.12,0.15,0.22,0.3,0.3,0.42c0.08,0.13,0.14,0.24,0.17,0.33c0.21,0.62,0.39,1.08,0.56,1.38
	c0.16,0.3,0.31,0.45,0.43,0.45c0.03,0,0.05-0.01,0.08-0.03c0.03-0.02,0.05-0.04,0.08-0.07c0.12,0.38,0.23,0.73,0.31,1.07
	c-0.19,0.22-0.36,0.38-0.51,0.49c-0.15,0.11-0.28,0.17-0.39,0.17c-0.37,0-0.75-0.34-1.14-1.04c-0.39-0.69-0.69-1.03-0.9-1.03
	c-0.28,0-0.74,0.59-1.38,1.78c-0.65,1.19-1.05,1.78-1.21,1.78c-0.08,0-0.19-0.01-0.32-0.04c-0.04-0.02-0.07-0.07-0.1-0.15
	c-0.02-0.07-0.03-0.16-0.03-0.26c0-0.12,0.02-0.27,0.05-0.46c0.03-0.19,0.07-0.41,0.13-0.67c0.07-0.32,0.13-0.58,0.17-0.77
	c0.04-0.19,0.07-0.33,0.07-0.4c0.02-0.1,0.04-0.3,0.07-0.59c0.03-0.29,0.07-0.68,0.12-1.17c0-0.08-0.02-0.15-0.05-0.19
	c-0.03-0.05-0.07-0.07-0.11-0.07c-0.04,0-0.08,0.02-0.13,0.05c-0.04,0.04-0.1,0.09-0.16,0.17c-0.06,0.1-0.13,0.2-0.21,0.3
	c-0.08,0.1-0.2,0.24-0.37,0.43c-0.19,0.31-0.38,0.62-0.58,0.94c-0.19,0.32-0.39,0.64-0.6,0.97c-0.32,0.54-0.58,0.94-0.77,1.2
	c-0.19,0.26-0.31,0.39-0.37,0.39c-0.16,0-0.28-0.03-0.36-0.08c-0.08-0.06-0.12-0.14-0.12-0.24c0-0.25,0.1-0.78,0.28-1.59
	c0.19-0.81,0.28-1.37,0.28-1.7c0-0.06-0.01-0.1-0.04-0.13c-0.02-0.04-0.05-0.05-0.09-0.05c-0.07,0-0.14,0.05-0.23,0.15
	c-0.09,0.1-0.19,0.27-0.3,0.49c-0.07,0.12-0.16,0.26-0.27,0.42c-0.11,0.16-0.24,0.35-0.39,0.56c-0.01,0.06-0.04,0.12-0.06,0.18
	c-0.03,0.06-0.05,0.11-0.09,0.17c-0.02-0.11-0.06-0.26-0.11-0.43C268.94,377.25,268.87,377.04,268.78,376.79z M262.11,376.79
	c0.02-0.02,0.04-0.05,0.05-0.08c0.01-0.03,0.02-0.07,0.02-0.11c0.09-0.11,0.19-0.26,0.31-0.44c0.12-0.19,0.25-0.41,0.39-0.66
	c0.12-0.23,0.24-0.46,0.36-0.69c0.13-0.23,0.26-0.46,0.4-0.69c0.12-0.23,0.23-0.47,0.35-0.72c0.11-0.25,0.24-0.5,0.37-0.73
	c0.21-0.15,0.38-0.25,0.5-0.32c0.12-0.06,0.2-0.09,0.24-0.09c0.08,0,0.14,0.04,0.19,0.11c0.04,0.07,0.06,0.18,0.06,0.32
	c0,0.05-0.01,0.11-0.02,0.2c-0.02,0.09-0.03,0.18-0.05,0.28c-0.04,0.15-0.08,0.31-0.13,0.47c-0.04,0.27-0.09,0.54-0.15,0.81
	c-0.06,0.27-0.11,0.54-0.17,0.8c-0.05,0.33-0.1,0.64-0.13,0.91c-0.03,0.28-0.04,0.53-0.04,0.77c0,0.43,0.01,0.75,0.04,0.96
	c0.03,0.21,0.07,0.3,0.13,0.28c0.05-0.04,0.12-0.1,0.2-0.17c0.08-0.07,0.17-0.14,0.28-0.23c0.1-0.15,0.21-0.33,0.33-0.54
	c0.12-0.22,0.27-0.47,0.43-0.77c0.1-0.21,0.2-0.43,0.3-0.64c0.04-0.06,0.08-0.13,0.13-0.22c0.05-0.08,0.1-0.17,0.14-0.25
	c0.1-0.37,0.22-0.65,0.34-0.83c0.13-0.18,0.27-0.27,0.42-0.27c0.14,0,0.25,0.03,0.33,0.08c0.08,0.05,0.14,0.13,0.17,0.23
	c0.02,0.05,0.03,0.15,0.04,0.28c0.01,0.13,0.02,0.3,0.02,0.52c0,0.08,0.01,0.21,0.04,0.37c0.02,0.16,0.04,0.28,0.04,0.36
	c0,0.28,0.03,0.5,0.1,0.64c0.07,0.15,0.17,0.22,0.32,0.22c0.04,0,0.09-0.02,0.15-0.04c0.06-0.03,0.11-0.06,0.17-0.09l0.33,1.07
	c-0.32,0.28-0.58,0.49-0.79,0.64c-0.21,0.15-0.36,0.22-0.46,0.22c-0.27,0-0.48-0.1-0.66-0.3c-0.17-0.2-0.3-0.5-0.37-0.89
	c-0.01-0.09-0.04-0.19-0.07-0.28c-0.04-0.09-0.08-0.19-0.13-0.28c-0.05,0.08-0.1,0.17-0.16,0.28c-0.06,0.11-0.13,0.21-0.19,0.32
	c-0.14,0.25-0.29,0.5-0.43,0.75c-0.14,0.24-0.29,0.49-0.44,0.72c-0.19,0.32-0.37,0.55-0.56,0.69c-0.19,0.14-0.37,0.21-0.53,0.21
	c-0.24,0-0.44-0.11-0.59-0.32c-0.15-0.21-0.25-0.53-0.29-0.94c-0.05-0.4-0.08-0.71-0.1-0.94c-0.02-0.23-0.02-0.36-0.01-0.41
	c-0.01-0.22-0.02-0.39-0.04-0.51c-0.02-0.11-0.05-0.17-0.08-0.17l-0.05,0.04l-0.46,0.67c-0.02,0.05-0.04,0.12-0.08,0.2
	c-0.04,0.08-0.09,0.18-0.15,0.29c-0.02-0.11-0.06-0.26-0.11-0.43C262.27,377.25,262.2,377.04,262.11,376.79z M261.43,366.1
	c-0.06,0-0.17,0.15-0.35,0.46c-0.17,0.3-0.4,0.75-0.67,1.35c-0.15,0.33-0.31,0.66-0.45,0.99c-0.15,0.33-0.3,0.65-0.44,0.97
	c-0.06,0.09-0.11,0.18-0.14,0.28c-0.03,0.09-0.04,0.19-0.04,0.29c-0.11,0.43-0.21,0.84-0.31,1.22c-0.1,0.41-0.17,0.72-0.24,0.95
	c-0.06,0.22-0.1,0.36-0.11,0.39l0.04,0.06c0.11-0.14,0.2-0.28,0.27-0.44c0.11-0.18,0.24-0.41,0.39-0.69
	c0.15-0.28,0.32-0.61,0.51-0.99c0.19-0.36,0.39-0.81,0.59-1.35c0.2-0.54,0.42-1.17,0.66-1.88c0.13-0.39,0.23-0.69,0.3-0.93
	c0.07-0.23,0.1-0.39,0.1-0.49c0-0.05-0.01-0.1-0.02-0.13C261.5,366.12,261.47,366.1,261.43,366.1z M256.23,376.79
	c0.12-0.15,0.21-0.26,0.27-0.34c0.07-0.09,0.12-0.16,0.16-0.22c0.08-0.11,0.16-0.23,0.21-0.33c0.05-0.11,0.08-0.2,0.09-0.29
	c0.05-0.26,0.1-0.59,0.17-0.98c0.07-0.39,0.15-0.85,0.25-1.37c0.05-0.15,0.1-0.35,0.16-0.58c0.05-0.24,0.11-0.5,0.18-0.79
	c0.07-0.38,0.14-0.73,0.24-1.05c0.1-0.32,0.2-0.6,0.32-0.86c0.04-0.07,0.07-0.15,0.11-0.26c0.04-0.11,0.07-0.23,0.11-0.37
	c0.04-0.12,0.09-0.27,0.16-0.43c0.07-0.17,0.14-0.36,0.23-0.58c0.22-0.46,0.41-0.86,0.57-1.19c0.16-0.33,0.3-0.6,0.41-0.8
	c0.19-0.33,0.38-0.64,0.58-0.93c0.19-0.29,0.39-0.56,0.59-0.8c0.18-0.23,0.34-0.39,0.47-0.49c0.13-0.11,0.24-0.16,0.32-0.16
	c0.07,0.09,0.13,0.18,0.16,0.25c0.04,0,0.07,0,0.11-0.02c0.14,0,0.24,0.08,0.3,0.24c0.06,0.16,0.1,0.4,0.1,0.72
	c0,0.07-0.01,0.16-0.02,0.27c-0.02,0.11-0.04,0.25-0.06,0.41c-0.04,0.06-0.06,0.12-0.08,0.21c-0.02,0.08-0.03,0.17-0.04,0.25
	c-0.01,0.11-0.01,0.2-0.02,0.28c-0.01,0.07-0.02,0.15-0.04,0.21c-0.07,0.19-0.14,0.41-0.22,0.68c-0.08,0.26-0.16,0.58-0.25,0.93
	c-0.05,0.13-0.12,0.3-0.2,0.52c-0.08,0.22-0.18,0.45-0.29,0.72c-0.05,0.15-0.12,0.33-0.21,0.55c-0.08,0.22-0.19,0.47-0.31,0.76
	c-0.03,0.11-0.09,0.22-0.17,0.35c-0.08,0.13-0.17,0.28-0.28,0.45c-0.03,0.12-0.12,0.34-0.27,0.64c-0.14,0.3-0.35,0.69-0.61,1.17
	c-0.13,0.24-0.29,0.53-0.5,0.89c-0.2,0.36-0.44,0.78-0.7,1.26c-0.1,0.58-0.18,1.09-0.23,1.54c-0.05,0.45-0.08,0.84-0.08,1.17
	c0,0.13,0.01,0.23,0.02,0.3c0.01,0.06,0.04,0.1,0.07,0.1c0.03-0.06,0.07-0.12,0.12-0.19c0.05-0.07,0.1-0.15,0.16-0.24
	c0.1-0.13,0.22-0.37,0.36-0.73c0.14-0.36,0.29-0.81,0.47-1.38c0.16-0.51,0.29-0.9,0.42-1.17c0.12-0.28,0.22-0.44,0.31-0.49
	l0.28-0.17c0.05-0.03,0.1-0.06,0.15-0.08c0.04-0.02,0.08-0.04,0.1-0.04c0.07,0,0.13,0.06,0.19,0.19c0.06,0.12,0.11,0.29,0.14,0.51
	c0.07,0.39,0.13,0.69,0.17,0.91c0.04,0.21,0.07,0.34,0.07,0.37c0.07,0.23,0.15,0.4,0.25,0.51c0.1,0.11,0.22,0.16,0.35,0.16
	c0.17-0.04,0.36-0.09,0.58-0.16c0.04,0.15,0.1,0.32,0.15,0.5c0.06,0.18,0.11,0.37,0.17,0.57c-0.13,0.12-0.26,0.24-0.39,0.36
	c-0.13,0.11-0.26,0.23-0.39,0.35c-0.09,0.07-0.21,0.12-0.37,0.16c-0.16,0.04-0.35,0.05-0.56,0.05c-0.33,0-0.58-0.22-0.76-0.67
	c-0.18-0.44-0.28-0.66-0.32-0.65h-0.05c-0.08,0.15-0.17,0.31-0.27,0.47c-0.1,0.16-0.19,0.33-0.28,0.51
	c-0.06,0.18-0.14,0.38-0.25,0.62c-0.11,0.23-0.24,0.49-0.38,0.77c-0.18,0.31-0.33,0.54-0.46,0.69c-0.13,0.15-0.25,0.23-0.34,0.23
	c-0.2,0-0.36-0.03-0.48-0.1c-0.12-0.07-0.18-0.17-0.21-0.3c-0.06-0.43-0.11-0.81-0.15-1.13c-0.03-0.32-0.05-0.59-0.05-0.82
	c0-0.07,0-0.13,0.01-0.19c0.01-0.06,0.01-0.1,0.02-0.15c0.02-0.1,0.04-0.21,0.05-0.32c0-0.04-0.01-0.07-0.02-0.09
	c-0.01-0.02-0.04-0.03-0.07-0.03c-0.02,0.03-0.04,0.07-0.06,0.11c-0.03,0.04-0.06,0.08-0.11,0.13c-0.02-0.1-0.06-0.24-0.11-0.42
	C256.39,377.26,256.32,377.04,256.23,376.79z M246.79,376.79c0.09-0.16,0.17-0.33,0.26-0.51c0.39-0.46,0.71-0.91,0.96-1.33
	c0.25-0.43,0.43-0.83,0.54-1.2l-0.08-0.56c0.07-0.19,0.24-0.42,0.52-0.68c0.27-0.26,0.5-0.39,0.67-0.39c0.18,0,0.34,0.08,0.46,0.23
	c0.12,0.15,0.25,0.32,0.36,0.48c0.06,0.06,0.1,0.1,0.13,0.13c0.21,0.23,0.37,0.55,0.48,0.96c0.11,0.41,0.16,0.9,0.16,1.49
	c0,0.31-0.08,0.75-0.25,1.32c-0.16,0.58-0.25,1.01-0.25,1.3c0,0.04,0.01,0.07,0.03,0.09c0.02,0.02,0.04,0.04,0.07,0.04
	c0.07,0,0.15-0.04,0.25-0.13c0.1-0.09,0.2-0.21,0.31-0.36c0.28-0.4,0.45-0.62,0.51-0.66c0.06-0.04,0.13-0.11,0.22-0.22
	c0.04,0.15,0.1,0.32,0.16,0.5c0.06,0.18,0.12,0.37,0.17,0.57c-0.05,0.06-0.1,0.13-0.16,0.22c-0.06,0.08-0.13,0.18-0.22,0.29
	c-0.18,0.19-0.42,0.43-0.71,0.7c-0.29,0.27-0.64,0.59-1.04,0.94c-0.11,0.1-0.23,0.18-0.37,0.24c-0.22,0-0.39-0.05-0.51-0.15
	c-0.11-0.09-0.17-0.25-0.17-0.47c0-0.09,0.01-0.18,0.04-0.3c0.02-0.11,0.06-0.23,0.1-0.36c0.03-0.1,0.07-0.2,0.1-0.31
	c0.04-0.1,0.07-0.21,0.1-0.32c0.11-0.49,0.21-0.94,0.27-1.35c0.06-0.41,0.09-0.79,0.09-1.12c0-0.41-0.04-0.72-0.13-0.94
	c-0.09-0.21-0.22-0.34-0.4-0.37c-0.12,0.09-0.25,0.22-0.39,0.39c-0.14,0.17-0.28,0.38-0.42,0.64c-0.15,0.28-0.29,0.51-0.42,0.68
	c-0.12,0.18-0.22,0.3-0.3,0.36c-0.05,0.11-0.13,0.25-0.23,0.39c-0.11,0.15-0.25,0.3-0.42,0.47c-0.01,0.03-0.03,0.07-0.05,0.14
	c-0.02,0.06-0.05,0.13-0.1,0.21c-0.04-0.18-0.09-0.36-0.15-0.53C246.92,377.15,246.86,376.98,246.79,376.79z M244.85,374.69
	c-0.03,0.01-0.07,0.05-0.11,0.12c-0.05,0.07-0.1,0.16-0.15,0.27c-0.08,0.17-0.16,0.37-0.26,0.58c-0.06,0.09-0.12,0.17-0.19,0.21
	c-0.07,0.05-0.14,0.09-0.23,0.11c-0.05,0.01-0.11,0.08-0.17,0.23c-0.06,0.14-0.11,0.35-0.17,0.62c-0.06,0.24-0.1,0.44-0.13,0.61
	c-0.03,0.17-0.04,0.31-0.04,0.43c0,0.21,0.04,0.37,0.11,0.49c0.07,0.11,0.19,0.16,0.34,0.16c0.25,0,0.47-0.1,0.68-0.3
	c0.21-0.2,0.4-0.49,0.58-0.88c0.08-0.15,0.16-0.28,0.24-0.42c0.04-0.04,0.08-0.12,0.1-0.23c0.03-0.1,0.05-0.23,0.08-0.39l0.14-0.66
	c-0.05-0.23-0.09-0.41-0.13-0.55c-0.04-0.13-0.09-0.22-0.13-0.25c-0.03-0.02-0.08-0.05-0.18-0.08
	C245.15,374.75,245.02,374.72,244.85,374.69z M241,376.79c0.04-0.06,0.08-0.12,0.12-0.21c0.04-0.09,0.08-0.19,0.14-0.29l0.62-0.61
	c0.08-0.13,0.19-0.3,0.35-0.5c0.16-0.2,0.35-0.45,0.58-0.74c0.03-0.09,0.07-0.19,0.13-0.3c0.06-0.11,0.13-0.22,0.22-0.33
	c0.07-0.1,0.15-0.19,0.22-0.28c0.07-0.09,0.14-0.18,0.21-0.26c0.08-0.12,0.16-0.23,0.23-0.35c0.07-0.11,0.14-0.23,0.22-0.34
	c0.08-0.11,0.17-0.19,0.26-0.26c0.09-0.06,0.19-0.09,0.3-0.09c0.12,0,0.21,0.02,0.27,0.06c0.06,0.04,0.09,0.1,0.1,0.18
	c-0.05,0.18-0.11,0.36-0.17,0.53l0.05,0.11c0.24-0.13,0.42-0.23,0.55-0.29c0.13-0.06,0.22-0.09,0.26-0.09
	c0.39,0,0.68,0.17,0.88,0.51c0.19,0.34,0.29,0.86,0.29,1.56c0,0.13-0.01,0.29-0.03,0.47c-0.02,0.17-0.05,0.37-0.1,0.58
	c-0.05,0.23-0.11,0.42-0.17,0.58c-0.06,0.16-0.12,0.27-0.17,0.34c0.02,0.09,0.05,0.15,0.07,0.2c0.02,0.04,0.06,0.06,0.1,0.06
	c0.04,0,0.08-0.02,0.13-0.06c0.05-0.04,0.1-0.09,0.16-0.17c0.05,0.17,0.11,0.35,0.16,0.53c0.05,0.18,0.1,0.36,0.16,0.54
	c-0.1,0.12-0.19,0.24-0.28,0.36c-0.09,0.11-0.19,0.23-0.29,0.34c-0.12,0.15-0.24,0.26-0.35,0.32c-0.11,0.07-0.22,0.1-0.32,0.1
	c-0.12,0-0.22-0.04-0.31-0.13c-0.08-0.09-0.14-0.21-0.19-0.36c-0.13,0.26-0.3,0.49-0.48,0.71c-0.19,0.21-0.4,0.39-0.63,0.53
	c-0.13,0.09-0.26,0.17-0.37,0.22c-0.11,0.05-0.21,0.07-0.3,0.07c-0.03,0-0.08,0.02-0.16,0.05c-0.08,0.03-0.14,0.05-0.19,0.05
	c-0.3,0-0.58-0.19-0.82-0.56c-0.25-0.37-0.37-0.79-0.37-1.25c0-0.19,0.03-0.43,0.09-0.74c0.06-0.3,0.09-0.48,0.09-0.54
	s-0.01-0.1-0.04-0.13c-0.02-0.03-0.06-0.05-0.1-0.05c-0.03,0-0.09,0.06-0.19,0.17c-0.1,0.11-0.24,0.28-0.43,0.5
	c-0.02,0.03-0.04,0.08-0.06,0.14c-0.02,0.06-0.05,0.13-0.1,0.21c-0.04-0.18-0.09-0.36-0.15-0.54
	C241.12,377.13,241.06,376.96,241,376.79z M235.86,381.83c-0.03,0-0.05,0-0.08,0c-0.02,0-0.06,0-0.1,0c-0.13,0-0.24-0.06-0.32-0.16
	c-0.09-0.11-0.15-0.28-0.18-0.51c-0.01-0.07-0.02-0.2-0.02-0.39c-0.01-0.19-0.01-0.44-0.01-0.76c0-0.13-0.01-0.33-0.02-0.61
	c-0.02-0.28-0.02-0.48-0.02-0.61c0-0.05,0.01-0.13,0.02-0.24c0.01-0.11,0.02-0.27,0.03-0.47c0.01-0.19,0.02-0.41,0.03-0.67
	c-0.01-0.25-0.03-0.49-0.06-0.73c0.04-0.41,0.08-0.82,0.13-1.25c0.01-0.06,0-0.17-0.01-0.34c-0.01-0.16-0.02-0.27-0.02-0.32
	c0-0.06,0.01-0.13,0.03-0.24c0.02-0.1,0.03-0.19,0.03-0.25c0-0.08-0.01-0.14-0.03-0.19c-0.02-0.05-0.05-0.07-0.08-0.07
	c-0.03,0.02-0.06,0.04-0.09,0.06c-0.04,0.02-0.07,0.04-0.11,0.06c-0.03,0.01-0.07,0.02-0.12,0.04c-0.05,0.02-0.11,0.05-0.18,0.08
	l-0.07-0.07l-0.02-0.11c0.05-0.12,0.1-0.24,0.15-0.36c0.05-0.11,0.1-0.23,0.14-0.35c0.05-0.1,0.11-0.19,0.17-0.26
	c0.07-0.08,0.14-0.15,0.22-0.23c0.06-0.05,0.11-0.17,0.15-0.37c0.04-0.2,0.07-0.49,0.09-0.88c0.02-0.44,0.05-0.8,0.07-1.07
	c0.03-0.28,0.05-0.47,0.08-0.56c0.02-0.09,0.05-0.21,0.08-0.36c0-0.05-0.01-0.12-0.02-0.22c-0.02-0.1-0.02-0.17-0.02-0.21
	c0.04-0.36,0.08-0.7,0.11-1.03c0.07-0.48,0.2-0.96,0.4-1.43c0.2-0.48,0.47-0.98,0.81-1.5c0.35-0.5,0.86-0.86,1.53-1.09
	c0.08,0.02,0.14,0.04,0.2,0.07l0.27-0.14c0.03,0,0.06,0.01,0.1,0.04c0.04,0.02,0.09,0.06,0.16,0.1c0.12-0.06,0.23-0.09,0.32-0.11
	c0.09-0.02,0.16-0.04,0.22-0.04c0.33,0,0.58,0.06,0.74,0.19c0.16,0.13,0.24,0.32,0.24,0.58c0,0.15-0.01,0.31-0.02,0.5
	c-0.01,0.19-0.04,0.39-0.07,0.6c-0.04,0.28-0.08,0.5-0.13,0.64c-0.05,0.14-0.1,0.22-0.16,0.24c-0.14-0.09-0.28-0.18-0.43-0.26
	c-0.14-0.08-0.29-0.17-0.45-0.26l-0.29,0.16c-0.09-0.01-0.19-0.03-0.3-0.06c-0.09,0-0.19,0.01-0.31,0.04
	c-0.11,0.03-0.24,0.06-0.36,0.11c-0.34,0.11-0.53,0.28-0.59,0.48c-0.05,0.2-0.14,0.48-0.27,0.82c-0.04,0.08-0.11,0.39-0.21,0.94
	c-0.09,0.55-0.22,1.33-0.37,2.34c-0.01,0.05-0.02,0.13-0.06,0.24c-0.04,0.11-0.05,0.21-0.05,0.29c0,0.11,0.01,0.19,0.04,0.25
	c0.02,0.06,0.06,0.09,0.1,0.1c0.08-0.06,0.19-0.11,0.32-0.18c0.14-0.06,0.3-0.13,0.49-0.21c0.17-0.03,0.34-0.07,0.51-0.12
	c0.17-0.05,0.36-0.11,0.54-0.19c0.05,0,0.12,0,0.2,0c0.08,0,0.17,0,0.28,0c0.18-0.05,0.37-0.09,0.55-0.14c0.31,0,0.54,0.06,0.7,0.19
	c0.16,0.13,0.23,0.31,0.23,0.54c0,0.04,0,0.16-0.01,0.35c-0.01,0.19-0.02,0.44-0.04,0.76c-0.07,0.18-0.14,0.36-0.22,0.54
	c-0.05,0-0.17-0.03-0.37-0.09c-0.2-0.05-0.48-0.14-0.84-0.26c-0.13,0.04-0.27,0.08-0.42,0.11c-0.15,0.03-0.3,0.04-0.46,0.04
	c-0.1,0-0.25,0.02-0.44,0.07c-0.19,0.05-0.33,0.08-0.43,0.08c-0.07,0.07-0.14,0.13-0.21,0.17c-0.07,0.04-0.14,0.05-0.21,0.05
	c-0.04,0-0.12-0.01-0.25-0.03c-0.07,0-0.14,0.09-0.2,0.27c-0.06,0.18-0.12,0.46-0.17,0.84l-0.08,0.5l0.06,0.36l-0.15,1.38
	c0,0.05,0.01,0.12,0.01,0.19c0.01,0.08,0.01,0.15,0.01,0.23c-0.07,0.62-0.12,1.22-0.15,1.81c-0.03,0.59-0.04,1.18-0.04,1.76
	c0,0.12-0.02,0.25-0.06,0.39C235.99,381.55,235.94,381.69,235.86,381.83z"/>
<path fill-rule="evenodd" fill="#2E3192" d="M301.72,376.79c0.12-0.19,0.31-0.41,0.57-0.67c0.25-0.26,0.45-0.48,0.57-0.65
	c0.08-0.14,0.18-0.31,0.31-0.5c0.13-0.2,0.28-0.43,0.45-0.7c0.11-0.14,0.21-0.24,0.31-0.32c0.1-0.07,0.2-0.11,0.3-0.11
	c0.13,0,0.23,0.05,0.3,0.14c0.07,0.09,0.11,0.24,0.11,0.44c0,0.3-0.08,0.79-0.24,1.46c-0.16,0.67-0.24,1.18-0.24,1.52
	c0,0.08,0.01,0.13,0.04,0.16c0.02,0.03,0.05,0.05,0.08,0.05l0.04-0.01c0.1-0.09,0.22-0.21,0.36-0.35c0.13-0.15,0.29-0.32,0.46-0.53
	c0.14-0.19,0.31-0.43,0.52-0.73c0.21-0.3,0.45-0.65,0.72-1.04c0.11-0.12,0.23-0.28,0.36-0.47c0.14-0.19,0.29-0.42,0.46-0.69
	c0.07-0.14,0.17-0.24,0.29-0.32c0.12-0.08,0.28-0.11,0.46-0.11c0.12,0,0.22,0.03,0.28,0.1c0.06,0.06,0.09,0.16,0.09,0.3
	c0,0.05-0.01,0.1-0.01,0.15c-0.01,0.05-0.01,0.1-0.02,0.15c-0.04,0.23-0.09,0.51-0.17,0.85c-0.08,0.34-0.17,0.73-0.27,1.18
	c-0.09,0.29-0.19,0.63-0.28,1.03c-0.1,0.39-0.2,0.83-0.31,1.31l0.05,0.1c0.11-0.08,0.28-0.26,0.5-0.55c0.22-0.29,0.5-0.67,0.83-1.16
	l0.33,1.07c-0.04,0.06-0.1,0.14-0.16,0.23c-0.06,0.09-0.14,0.19-0.24,0.28c-0.57,0.59-1.06,1.17-1.47,1.74
	c-0.41,0.58-0.73,1.14-0.97,1.71c-0.36,0.85-0.65,1.54-0.89,2.08c-0.24,0.53-0.41,0.91-0.51,1.12c-0.37,0.71-0.72,1.23-1.05,1.57
	c-0.33,0.34-0.65,0.51-0.97,0.51c-0.12,0-0.2-0.04-0.26-0.1c-0.05-0.07-0.08-0.18-0.08-0.33c0-0.07,0.01-0.17,0.04-0.29
	c0.02-0.11,0.07-0.24,0.14-0.37c0.1-0.21,0.19-0.43,0.28-0.65l0.24-0.3c0.02-0.1,0.03-0.17,0.03-0.21c0.02-0.04,0.05-0.08,0.09-0.14
	c0.04-0.06,0.08-0.11,0.14-0.19c0.04-0.14,0.14-0.37,0.3-0.69c0.16-0.32,0.39-0.73,0.69-1.24c0.22-0.37,0.42-0.7,0.6-0.99
	c0.18-0.29,0.34-0.54,0.47-0.74c0.02-0.06,0.04-0.13,0.07-0.22c0.02-0.09,0.04-0.17,0.06-0.26c0.07-0.2,0.14-0.45,0.23-0.73
	c0.08-0.28,0.18-0.62,0.3-1.01c0.05-0.23,0.1-0.48,0.14-0.77c0.04-0.29,0.07-0.6,0.1-0.94c-0.01-0.03-0.02-0.07-0.02-0.12
	c0-0.05-0.01-0.12-0.04-0.21c-0.1,0.07-0.2,0.17-0.32,0.31c-0.12,0.14-0.24,0.3-0.37,0.49c-0.18,0.33-0.36,0.61-0.54,0.83
	c-0.18,0.22-0.36,0.39-0.54,0.5c-0.12,0.33-0.27,0.58-0.45,0.73c-0.19,0.16-0.4,0.24-0.64,0.24c-0.18,0-0.31-0.06-0.4-0.18
	c-0.09-0.12-0.14-0.3-0.14-0.55c0-0.05,0-0.11,0.01-0.17c0.01-0.07,0.02-0.15,0.04-0.24c-0.02-0.07-0.05-0.18-0.08-0.32
	c0.02-0.13,0.04-0.28,0.06-0.44c0-0.23-0.01-0.4-0.04-0.52c-0.02-0.12-0.06-0.17-0.12-0.17l-0.03,0.02
	c-0.06,0.06-0.14,0.16-0.25,0.28c-0.11,0.12-0.23,0.27-0.38,0.45c-0.03-0.1-0.06-0.22-0.1-0.36c-0.04-0.14-0.08-0.3-0.13-0.49
	c-0.01-0.05-0.02-0.09-0.04-0.13C301.77,376.84,301.75,376.81,301.72,376.79z M297.29,376.79l0.03-0.09
	c0.03-0.06,0.07-0.14,0.13-0.23c0.05-0.09,0.11-0.2,0.18-0.32c0.38-0.51,0.75-1.11,1.11-1.82c0.36-0.7,0.72-1.51,1.07-2.42
	c0.04-0.09,0.09-0.2,0.15-0.34c0.05-0.14,0.11-0.31,0.18-0.52c0-0.05-0.01-0.08-0.02-0.1c-0.02-0.02-0.04-0.04-0.08-0.04
	c-0.03,0-0.08,0.01-0.16,0.04c-0.07,0.03-0.13,0.04-0.16,0.04h-1c-0.04,0-0.11,0-0.21-0.01c-0.1-0.01-0.17-0.01-0.21-0.01
	c-0.05-0.04-0.1-0.07-0.15-0.1c-0.05-0.02-0.09-0.06-0.13-0.09c-0.06-0.03-0.11-0.07-0.15-0.12c-0.04-0.05-0.05-0.11-0.05-0.18
	c0-0.49,0.04-0.87,0.11-1.13c0.07-0.26,0.18-0.39,0.33-0.39c0.15,0,0.29,0.01,0.42,0.03c0.13,0.02,0.25,0.04,0.35,0.07
	c0.08-0.02,0.15-0.05,0.22-0.07c0.14,0,0.27,0.01,0.37,0.02c0.1,0.02,0.18,0.04,0.23,0.06c0.07-0.02,0.14-0.04,0.21-0.06
	c0.07-0.02,0.14-0.04,0.22-0.06l0.26,0.11c0.19-0.03,0.39-0.41,0.6-1.14c0.21-0.73,0.43-1.09,0.68-1.09c0.13,0,0.23,0.06,0.3,0.17
	c0.07,0.11,0.11,0.28,0.11,0.51c0,0.18-0.04,0.41-0.11,0.7c-0.07,0.29-0.11,0.51-0.12,0.66c0.01,0.03,0.02,0.06,0.04,0.1
	c0.02,0.04,0.05,0.08,0.08,0.12c0.03,0.03,0.05,0.08,0.07,0.15c0.01,0.08,0.02,0.17,0.02,0.27c0,0.47-0.01,0.82-0.04,1.07
	c-0.03,0.25-0.08,0.38-0.14,0.39l-0.54,0.16c-0.01,0.08-0.02,0.17-0.04,0.28c-0.02,0.11-0.04,0.24-0.07,0.38
	c-0.09,0.39-0.19,0.87-0.3,1.46c-0.11,0.59-0.24,1.29-0.37,2.09c-0.08,0.65-0.15,1.17-0.19,1.57c-0.05,0.4-0.07,0.67-0.07,0.81
	c0,0.12,0.01,0.22,0.04,0.28c0.02,0.06,0.07,0.09,0.12,0.09c0.03,0,0.15-0.11,0.35-0.34c0.2-0.22,0.48-0.56,0.84-0.99l0.31,1.07
	c-0.05,0.09-0.13,0.19-0.22,0.3c-0.1,0.11-0.21,0.24-0.34,0.37c-0.05,0.09-0.12,0.18-0.2,0.28c-0.08,0.11-0.17,0.23-0.27,0.37
	c-0.1,0.16-0.19,0.31-0.28,0.47c-0.09,0.16-0.19,0.31-0.28,0.45c-0.13,0.21-0.25,0.35-0.37,0.44c-0.12,0.09-0.24,0.13-0.34,0.13
	c-0.24,0-0.41-0.1-0.52-0.3c-0.12-0.2-0.17-0.51-0.17-0.92c0-0.45,0.01-0.84,0.03-1.17c0.02-0.33,0.05-0.6,0.1-0.8
	c0.02-0.06,0.04-0.11,0.05-0.16c0-0.07,0.01-0.18,0.02-0.31c0.02-0.13,0.04-0.28,0.05-0.46c0.03-0.3,0.07-0.6,0.1-0.9
	c0.06-0.18,0.12-0.38,0.19-0.59c0-0.04-0.02-0.07-0.07-0.1l-0.08,0.07c-0.08,0.19-0.18,0.38-0.31,0.58
	c-0.13,0.21-0.28,0.42-0.46,0.64c-0.27,0.38-0.55,0.76-0.83,1.14c-0.02,0.04-0.05,0.09-0.09,0.17c-0.04,0.07-0.09,0.17-0.14,0.29
	c-0.03-0.09-0.06-0.21-0.1-0.36c-0.04-0.14-0.08-0.3-0.13-0.49c-0.01-0.05-0.02-0.09-0.04-0.13
	C297.33,376.84,297.31,376.81,297.29,376.79z M296.04,367.67c0.13,0,0.23,0.04,0.29,0.11c0.06,0.08,0.09,0.19,0.09,0.34
	c-0.03,0.22-0.06,0.4-0.08,0.54c-0.05,0.28-0.1,0.51-0.14,0.68c-0.04,0.18-0.07,0.3-0.09,0.38c-0.05,0.17-0.11,0.32-0.2,0.44
	c-0.08,0.13-0.18,0.24-0.3,0.34c-0.12,0.12-0.22,0.21-0.31,0.26c-0.08,0.05-0.14,0.07-0.17,0.06c-0.09-0.02-0.18-0.03-0.26-0.04
	c-0.08-0.01-0.16-0.02-0.24-0.02c-0.07-0.05-0.13-0.16-0.16-0.31c-0.04-0.15-0.06-0.36-0.06-0.62c0-0.23,0.1-0.53,0.29-0.87
	c0.19-0.35,0.37-0.54,0.52-0.56c0.09-0.16,0.2-0.34,0.32-0.55c0.05-0.06,0.12-0.1,0.21-0.13
	C295.83,367.69,295.93,367.67,296.04,367.67z M292.7,376.79l0.05-0.08l0.02-0.12c0.15-0.28,0.4-0.66,0.76-1.11
	c0.36-0.46,0.61-0.83,0.75-1.11c0.05-0.12,0.11-0.21,0.19-0.27c0.07-0.05,0.14-0.08,0.21-0.08c0.19,0,0.34,0.07,0.47,0.2
	c0.13,0.13,0.21,0.34,0.25,0.61c0.04,0.24,0.07,0.48,0.1,0.72c0.03,0.24,0.06,0.49,0.08,0.73c0.04,0.15,0.08,0.39,0.13,0.7
	c0.05,0.31,0.09,0.49,0.12,0.54c0.02,0.07,0.07,0.13,0.12,0.17c0.05,0.04,0.12,0.05,0.2,0.05c0.1,0,0.19-0.02,0.3-0.07
	c0.1-0.05,0.2-0.13,0.31-0.26c0.08-0.1,0.16-0.2,0.25-0.3c0.09-0.11,0.17-0.21,0.26-0.31l0.33,1.07c-0.08,0.12-0.2,0.26-0.34,0.42
	c-0.14,0.16-0.31,0.34-0.51,0.55c-0.22,0.23-0.4,0.4-0.56,0.51c-0.16,0.11-0.27,0.17-0.35,0.17c-0.48,0-0.8-0.08-0.94-0.24
	c-0.14-0.16-0.3-0.61-0.48-1.35c-0.02-0.07-0.05-0.14-0.1-0.22c-0.04-0.08-0.09-0.19-0.14-0.3c-0.07-0.18-0.12-0.31-0.17-0.4
	c-0.05-0.09-0.09-0.13-0.12-0.13c-0.08,0-0.2,0.08-0.34,0.25c-0.14,0.17-0.32,0.41-0.53,0.75c-0.03-0.1-0.06-0.22-0.1-0.36
	c-0.04-0.14-0.08-0.3-0.13-0.49c-0.01-0.05-0.02-0.09-0.04-0.13C292.75,376.84,292.73,376.81,292.7,376.79z M285.05,376.79
	c0.02-0.06,0.05-0.11,0.08-0.18c0.04-0.07,0.08-0.15,0.12-0.24c0.05-0.06,0.12-0.15,0.21-0.26c0.08-0.11,0.18-0.25,0.29-0.4
	c0.1-0.15,0.22-0.34,0.35-0.57c0.14-0.23,0.31-0.5,0.51-0.83c0.09-0.13,0.19-0.3,0.32-0.5c0.13-0.21,0.28-0.45,0.46-0.73
	c0.15-0.25,0.31-0.44,0.48-0.56c0.17-0.12,0.35-0.19,0.55-0.19c0.19,0,0.33,0.09,0.42,0.26c0.09,0.17,0.14,0.42,0.14,0.75
	c0,0.18-0.05,0.52-0.14,1.01c-0.09,0.5-0.23,1.16-0.42,1.99c-0.05,0.15-0.1,0.3-0.14,0.44c-0.03,0.1-0.05,0.19-0.07,0.26
	c-0.01,0.08-0.01,0.14-0.01,0.17c0,0.05,0.02,0.11,0.05,0.17c0.03-0.02,0.05-0.05,0.08-0.09c0.02-0.04,0.05-0.09,0.08-0.14
	c0.04-0.12,0.11-0.24,0.19-0.37c0.09-0.13,0.19-0.27,0.32-0.42c0.05-0.13,0.11-0.26,0.19-0.39c0.08-0.13,0.16-0.24,0.26-0.35
	c0.02-0.03,0.05-0.08,0.08-0.15c0.03-0.07,0.07-0.14,0.12-0.22c0.07-0.1,0.15-0.21,0.25-0.31c0.1-0.11,0.21-0.22,0.34-0.34
	c0.14-0.11,0.27-0.19,0.39-0.26c0.12-0.06,0.21-0.09,0.3-0.09c0.16,0,0.31,0.06,0.44,0.17c0.13,0.11,0.24,0.3,0.33,0.54
	c0.11,0.48,0.21,0.92,0.3,1.33c0.06,0.24,0.12,0.42,0.2,0.53c0.07,0.11,0.15,0.17,0.24,0.17c0.07,0,0.13-0.02,0.18-0.06
	c0.05-0.04,0.11-0.1,0.15-0.18l0.33,1.07c-0.09,0.11-0.18,0.22-0.28,0.34c-0.1,0.12-0.19,0.23-0.28,0.34
	c-0.12,0.16-0.24,0.28-0.34,0.34c-0.11,0.07-0.21,0.1-0.32,0.1c-0.12,0-0.24-0.04-0.35-0.11c-0.11-0.08-0.21-0.19-0.29-0.35
	c-0.04-0.06-0.1-0.17-0.16-0.34c-0.06-0.17-0.14-0.37-0.22-0.62c-0.07-0.1-0.15-0.23-0.24-0.39c-0.09-0.17-0.19-0.36-0.31-0.58
	l-0.07-0.04c-0.1,0.05-0.2,0.12-0.3,0.21c-0.1,0.09-0.21,0.21-0.31,0.36c-0.24,0.31-0.42,0.5-0.52,0.58
	c-0.11,0.08-0.18,0.17-0.22,0.26c-0.07,0.19-0.2,0.43-0.38,0.72c-0.18,0.29-0.41,0.64-0.68,1.04c-0.07,0.1-0.14,0.2-0.21,0.3
	c-0.07,0.09-0.14,0.19-0.21,0.28c-0.07,0.08-0.15,0.14-0.24,0.18s-0.19,0.05-0.29,0.05c-0.21,0-0.33-0.11-0.35-0.32
	c-0.02-0.21-0.04-0.43-0.05-0.64c0.08-0.32,0.17-0.73,0.27-1.22c0.1-0.49,0.22-1.05,0.35-1.7c0-0.04,0.01-0.09,0.03-0.15
	c0.02-0.07,0.04-0.15,0.07-0.26c0.03-0.1,0.05-0.19,0.06-0.26c0.01-0.07,0.02-0.14,0.02-0.19c0-0.06-0.01-0.1-0.04-0.13
	c-0.03-0.03-0.07-0.04-0.13-0.04c-0.05,0-0.12,0.04-0.21,0.14c-0.09,0.09-0.19,0.24-0.32,0.44c-0.15,0.23-0.27,0.41-0.36,0.54
	c-0.09,0.13-0.15,0.21-0.18,0.23c-0.05,0.05-0.12,0.13-0.19,0.23c-0.07,0.1-0.15,0.21-0.24,0.34c-0.01,0.03-0.03,0.08-0.05,0.14
	c-0.02,0.06-0.05,0.13-0.1,0.21c-0.02-0.11-0.06-0.26-0.11-0.43C285.2,377.25,285.13,377.04,285.05,376.79z M279.15,376.29
	l0.73-0.69c0.03-0.04,0.06-0.09,0.1-0.16c0.04-0.06,0.08-0.16,0.13-0.28c0.04-0.1,0.09-0.19,0.15-0.26
	c0.06-0.07,0.13-0.13,0.21-0.19c0.04-0.08,0.1-0.17,0.18-0.29c0.08-0.11,0.18-0.25,0.3-0.4c0.06-0.05,0.13-0.11,0.22-0.21
	c0.09-0.09,0.19-0.21,0.3-0.35c0.49-0.66,0.91-1.16,1.28-1.49c0.37-0.33,0.67-0.5,0.92-0.5c0.14,0,0.24,0.04,0.31,0.13
	c0.07,0.09,0.1,0.21,0.1,0.36c0,0.16-0.02,0.3-0.06,0.43c-0.04,0.13-0.1,0.23-0.19,0.31c-0.13,0.14-0.28,0.3-0.43,0.47
	c-0.08,0.16-0.19,0.33-0.31,0.51c-0.12,0.18-0.27,0.36-0.43,0.54c-0.05,0.1-0.1,0.19-0.13,0.27c-0.03,0.04-0.08,0.11-0.15,0.21
	c-0.07,0.1-0.17,0.22-0.3,0.35c-0.05,0.17-0.17,0.39-0.35,0.66c-0.18,0.27-0.42,0.6-0.71,0.97c-0.04,0.06-0.1,0.18-0.2,0.37
	c-0.1,0.19-0.22,0.45-0.37,0.77l0.05,0.1c0.12-0.06,0.24-0.15,0.37-0.28c0.13-0.13,0.27-0.31,0.43-0.52
	c0.18-0.24,0.33-0.43,0.44-0.58c0.11-0.15,0.2-0.25,0.25-0.3c0.04-0.03,0.07-0.06,0.11-0.09c0.04-0.03,0.08-0.07,0.13-0.12
	c0.25-0.42,0.48-0.74,0.69-0.94c0.21-0.21,0.41-0.31,0.59-0.31c0.11,0,0.2,0.06,0.25,0.19c0.06,0.13,0.09,0.32,0.1,0.57
	c-0.01,0.39-0.02,0.76-0.02,1.11c-0.01,0.25,0.04,0.47,0.14,0.67c0.1,0.2,0.23,0.3,0.39,0.3c0.05,0,0.1-0.02,0.14-0.06
	c0.05-0.04,0.09-0.09,0.14-0.15c0.04-0.07,0.07-0.14,0.11-0.2c0.04-0.06,0.07-0.12,0.11-0.19c0.02-0.02,0.05-0.04,0.09-0.08
	c0.04-0.04,0.08-0.09,0.11-0.14c0.08,0.23,0.14,0.43,0.19,0.61c0.05,0.17,0.09,0.33,0.12,0.46c-0.12,0.16-0.24,0.33-0.36,0.51
	c-0.12,0.18-0.25,0.34-0.38,0.5c-0.16,0.18-0.31,0.31-0.47,0.4c-0.15,0.09-0.3,0.13-0.45,0.13c-0.34,0-0.61-0.14-0.8-0.43
	c-0.19-0.29-0.3-0.72-0.33-1.3c0-0.07-0.01-0.14-0.02-0.21c-0.01-0.07-0.04-0.15-0.08-0.23c-0.03,0.04-0.06,0.08-0.09,0.12
	c-0.03,0.04-0.07,0.1-0.11,0.17c-0.07,0.08-0.16,0.17-0.26,0.29c-0.1,0.11-0.22,0.25-0.36,0.41c-0.19,0.28-0.34,0.51-0.47,0.68
	c-0.13,0.18-0.22,0.3-0.27,0.38c-0.11,0.13-0.23,0.26-0.37,0.39c-0.14,0.13-0.3,0.26-0.48,0.41c-0.11,0.08-0.21,0.15-0.29,0.2
	c-0.08,0.05-0.14,0.07-0.18,0.07c-0.26,0-0.45-0.09-0.57-0.27c-0.12-0.18-0.18-0.46-0.18-0.84c0-0.21,0.03-0.41,0.1-0.6
	c0.06-0.19,0.16-0.38,0.28-0.55c0.01-0.1,0.02-0.18,0.02-0.24c0-0.04-0.01-0.08-0.02-0.12c-0.01-0.04-0.03-0.09-0.05-0.14
	c-0.03-0.11-0.07-0.23-0.11-0.37c-0.04-0.14-0.08-0.28-0.13-0.44c0.02-0.03,0.05-0.09,0.09-0.18
	C279.05,376.52,279.1,376.41,279.15,376.29z"/>
<path fill="none" stroke="#2E3192" stroke-width="0.216" stroke-miterlimit="2.6131" d="M301.72,376.79
	c0.12-0.19,0.31-0.41,0.57-0.67c0.25-0.26,0.45-0.48,0.57-0.65c0.08-0.14,0.18-0.31,0.31-0.5c0.13-0.2,0.28-0.43,0.45-0.7
	c0.11-0.14,0.21-0.24,0.31-0.32c0.1-0.07,0.2-0.11,0.3-0.11c0.13,0,0.23,0.05,0.3,0.14c0.07,0.09,0.11,0.24,0.11,0.44
	c0,0.3-0.08,0.79-0.24,1.46c-0.16,0.67-0.24,1.18-0.24,1.52c0,0.08,0.01,0.13,0.04,0.16c0.02,0.03,0.05,0.05,0.08,0.05l0.04-0.01
	c0.1-0.09,0.22-0.21,0.36-0.35c0.13-0.15,0.29-0.32,0.46-0.53c0.14-0.19,0.31-0.43,0.52-0.73c0.21-0.3,0.45-0.65,0.72-1.04
	c0.11-0.12,0.23-0.28,0.36-0.47c0.14-0.19,0.29-0.42,0.46-0.69c0.07-0.14,0.17-0.24,0.29-0.32c0.12-0.08,0.28-0.11,0.46-0.11
	c0.12,0,0.22,0.03,0.28,0.1c0.06,0.06,0.09,0.16,0.09,0.3c0,0.05-0.01,0.1-0.01,0.15c-0.01,0.05-0.01,0.1-0.02,0.15
	c-0.04,0.23-0.09,0.51-0.17,0.85c-0.08,0.34-0.17,0.73-0.27,1.18c-0.09,0.29-0.19,0.63-0.28,1.03c-0.1,0.39-0.2,0.83-0.31,1.31
	l0.05,0.1c0.11-0.08,0.28-0.26,0.5-0.55c0.22-0.29,0.5-0.67,0.83-1.16l0.33,1.07c-0.04,0.06-0.1,0.14-0.16,0.23
	c-0.06,0.09-0.14,0.19-0.24,0.28c-0.57,0.59-1.06,1.17-1.47,1.74c-0.41,0.58-0.73,1.14-0.97,1.71c-0.36,0.85-0.65,1.54-0.89,2.08
	c-0.24,0.53-0.41,0.91-0.51,1.12c-0.37,0.71-0.72,1.23-1.05,1.57c-0.33,0.34-0.65,0.51-0.97,0.51c-0.12,0-0.2-0.04-0.26-0.1
	c-0.05-0.07-0.08-0.18-0.08-0.33c0-0.07,0.01-0.17,0.04-0.29c0.02-0.11,0.07-0.24,0.14-0.37c0.1-0.21,0.19-0.43,0.28-0.65l0.24-0.3
	c0.02-0.1,0.03-0.17,0.03-0.21c0.02-0.04,0.05-0.08,0.09-0.14c0.04-0.06,0.08-0.11,0.14-0.19c0.04-0.14,0.14-0.37,0.3-0.69
	c0.16-0.32,0.39-0.73,0.69-1.24c0.22-0.37,0.42-0.7,0.6-0.99c0.18-0.29,0.34-0.54,0.47-0.74c0.02-0.06,0.04-0.13,0.07-0.22
	c0.02-0.09,0.04-0.17,0.06-0.26c0.07-0.2,0.14-0.45,0.23-0.73c0.08-0.28,0.18-0.62,0.3-1.01c0.05-0.23,0.1-0.48,0.14-0.77
	c0.04-0.29,0.07-0.6,0.1-0.94c-0.01-0.03-0.02-0.07-0.02-0.12c0-0.05-0.01-0.12-0.04-0.21c-0.1,0.07-0.2,0.17-0.32,0.31
	c-0.12,0.14-0.24,0.3-0.37,0.49c-0.18,0.33-0.36,0.61-0.54,0.83c-0.18,0.22-0.36,0.39-0.54,0.5c-0.12,0.33-0.27,0.58-0.45,0.73
	c-0.19,0.16-0.4,0.24-0.64,0.24c-0.18,0-0.31-0.06-0.4-0.18c-0.09-0.12-0.14-0.3-0.14-0.55c0-0.05,0-0.11,0.01-0.17
	c0.01-0.07,0.02-0.15,0.04-0.24c-0.02-0.07-0.05-0.18-0.08-0.32c0.02-0.13,0.04-0.28,0.06-0.44c0-0.23-0.01-0.4-0.04-0.52
	c-0.02-0.12-0.06-0.17-0.12-0.17l-0.03,0.02c-0.06,0.06-0.14,0.16-0.25,0.28c-0.11,0.12-0.23,0.27-0.38,0.45
	c-0.03-0.1-0.06-0.22-0.1-0.36c-0.04-0.14-0.08-0.3-0.13-0.49c-0.01-0.05-0.02-0.09-0.04-0.13
	C301.77,376.84,301.75,376.81,301.72,376.79z M297.29,376.79l0.03-0.09c0.03-0.06,0.07-0.14,0.13-0.23c0.05-0.09,0.11-0.2,0.18-0.32
	c0.38-0.51,0.75-1.11,1.11-1.82c0.36-0.7,0.72-1.51,1.07-2.42c0.04-0.09,0.09-0.2,0.15-0.34c0.05-0.14,0.11-0.31,0.18-0.52
	c0-0.05-0.01-0.08-0.02-0.1c-0.02-0.02-0.04-0.04-0.08-0.04c-0.03,0-0.08,0.01-0.16,0.04c-0.07,0.03-0.13,0.04-0.16,0.04h-1
	c-0.04,0-0.11,0-0.21-0.01c-0.1-0.01-0.17-0.01-0.21-0.01c-0.05-0.04-0.1-0.07-0.15-0.1c-0.05-0.02-0.09-0.06-0.13-0.09
	c-0.06-0.03-0.11-0.07-0.15-0.12c-0.04-0.05-0.05-0.11-0.05-0.18c0-0.49,0.04-0.87,0.11-1.13c0.07-0.26,0.18-0.39,0.33-0.39
	c0.15,0,0.29,0.01,0.42,0.03c0.13,0.02,0.25,0.04,0.35,0.07c0.08-0.02,0.15-0.05,0.22-0.07c0.14,0,0.27,0.01,0.37,0.02
	c0.1,0.02,0.18,0.04,0.23,0.06c0.07-0.02,0.14-0.04,0.21-0.06c0.07-0.02,0.14-0.04,0.22-0.06l0.26,0.11
	c0.19-0.03,0.39-0.41,0.6-1.14c0.21-0.73,0.43-1.09,0.68-1.09c0.13,0,0.23,0.06,0.3,0.17c0.07,0.11,0.11,0.28,0.11,0.51
	c0,0.18-0.04,0.41-0.11,0.7c-0.07,0.29-0.11,0.51-0.12,0.66c0.01,0.03,0.02,0.06,0.04,0.1c0.02,0.04,0.05,0.08,0.08,0.12
	c0.03,0.03,0.05,0.08,0.07,0.15c0.01,0.08,0.02,0.17,0.02,0.27c0,0.47-0.01,0.82-0.04,1.07c-0.03,0.25-0.08,0.38-0.14,0.39
	l-0.54,0.16c-0.01,0.08-0.02,0.17-0.04,0.28c-0.02,0.11-0.04,0.24-0.07,0.38c-0.09,0.39-0.19,0.87-0.3,1.46
	c-0.11,0.59-0.24,1.29-0.37,2.09c-0.08,0.65-0.15,1.17-0.19,1.57c-0.05,0.4-0.07,0.67-0.07,0.81c0,0.12,0.01,0.22,0.04,0.28
	c0.02,0.06,0.07,0.09,0.12,0.09c0.03,0,0.15-0.11,0.35-0.34c0.2-0.22,0.48-0.56,0.84-0.99l0.31,1.07c-0.05,0.09-0.13,0.19-0.22,0.3
	c-0.1,0.11-0.21,0.24-0.34,0.37c-0.05,0.09-0.12,0.18-0.2,0.28c-0.08,0.11-0.17,0.23-0.27,0.37c-0.1,0.16-0.19,0.31-0.28,0.47
	c-0.09,0.16-0.19,0.31-0.28,0.45c-0.13,0.21-0.25,0.35-0.37,0.44c-0.12,0.09-0.24,0.13-0.34,0.13c-0.24,0-0.41-0.1-0.52-0.3
	c-0.12-0.2-0.17-0.51-0.17-0.92c0-0.45,0.01-0.84,0.03-1.17c0.02-0.33,0.05-0.6,0.1-0.8c0.02-0.06,0.04-0.11,0.05-0.16
	c0-0.07,0.01-0.18,0.02-0.31c0.02-0.13,0.04-0.28,0.05-0.46c0.03-0.3,0.07-0.6,0.1-0.9c0.06-0.18,0.12-0.38,0.19-0.59
	c0-0.04-0.02-0.07-0.07-0.1l-0.08,0.07c-0.08,0.19-0.18,0.38-0.31,0.58c-0.13,0.21-0.28,0.42-0.46,0.64
	c-0.27,0.38-0.55,0.76-0.83,1.14c-0.02,0.04-0.05,0.09-0.09,0.17c-0.04,0.07-0.09,0.17-0.14,0.29c-0.03-0.09-0.06-0.21-0.1-0.36
	c-0.04-0.14-0.08-0.3-0.13-0.49c-0.01-0.05-0.02-0.09-0.04-0.13C297.33,376.84,297.31,376.81,297.29,376.79z M296.04,367.67
	c0.13,0,0.23,0.04,0.29,0.11c0.06,0.08,0.09,0.19,0.09,0.34c-0.03,0.22-0.06,0.4-0.08,0.54c-0.05,0.28-0.1,0.51-0.14,0.68
	c-0.04,0.18-0.07,0.3-0.09,0.38c-0.05,0.17-0.11,0.32-0.2,0.44c-0.08,0.13-0.18,0.24-0.3,0.34c-0.12,0.12-0.22,0.21-0.31,0.26
	c-0.08,0.05-0.14,0.07-0.17,0.06c-0.09-0.02-0.18-0.03-0.26-0.04c-0.08-0.01-0.16-0.02-0.24-0.02c-0.07-0.05-0.13-0.16-0.16-0.31
	c-0.04-0.15-0.06-0.36-0.06-0.62c0-0.23,0.1-0.53,0.29-0.87c0.19-0.35,0.37-0.54,0.52-0.56c0.09-0.16,0.2-0.34,0.32-0.55
	c0.05-0.06,0.12-0.1,0.21-0.13C295.83,367.69,295.93,367.67,296.04,367.67z M292.7,376.79l0.05-0.08l0.02-0.12
	c0.15-0.28,0.4-0.66,0.76-1.11c0.36-0.46,0.61-0.83,0.75-1.11c0.05-0.12,0.11-0.21,0.19-0.27c0.07-0.05,0.14-0.08,0.21-0.08
	c0.19,0,0.34,0.07,0.47,0.2c0.13,0.13,0.21,0.34,0.25,0.61c0.04,0.24,0.07,0.48,0.1,0.72c0.03,0.24,0.06,0.49,0.08,0.73
	c0.04,0.15,0.08,0.39,0.13,0.7c0.05,0.31,0.09,0.49,0.12,0.54c0.02,0.07,0.07,0.13,0.12,0.17c0.05,0.04,0.12,0.05,0.2,0.05
	c0.1,0,0.19-0.02,0.3-0.07c0.1-0.05,0.2-0.13,0.31-0.26c0.08-0.1,0.16-0.2,0.25-0.3c0.09-0.11,0.17-0.21,0.26-0.31l0.33,1.07
	c-0.08,0.12-0.2,0.26-0.34,0.42c-0.14,0.16-0.31,0.34-0.51,0.55c-0.22,0.23-0.4,0.4-0.56,0.51c-0.16,0.11-0.27,0.17-0.35,0.17
	c-0.48,0-0.8-0.08-0.94-0.24c-0.14-0.16-0.3-0.61-0.48-1.35c-0.02-0.07-0.05-0.14-0.1-0.22c-0.04-0.08-0.09-0.19-0.14-0.3
	c-0.07-0.18-0.12-0.31-0.17-0.4c-0.05-0.09-0.09-0.13-0.12-0.13c-0.08,0-0.2,0.08-0.34,0.25c-0.14,0.17-0.32,0.41-0.53,0.75
	c-0.03-0.1-0.06-0.22-0.1-0.36c-0.04-0.14-0.08-0.3-0.13-0.49c-0.01-0.05-0.02-0.09-0.04-0.13
	C292.75,376.84,292.73,376.81,292.7,376.79z M285.05,376.79c0.02-0.06,0.05-0.11,0.08-0.18c0.04-0.07,0.08-0.15,0.12-0.24
	c0.05-0.06,0.12-0.15,0.21-0.26c0.08-0.11,0.18-0.25,0.29-0.4c0.1-0.15,0.22-0.34,0.35-0.57c0.14-0.23,0.31-0.5,0.51-0.83
	c0.09-0.13,0.19-0.3,0.32-0.5c0.13-0.21,0.28-0.45,0.46-0.73c0.15-0.25,0.31-0.44,0.48-0.56c0.17-0.12,0.35-0.19,0.55-0.19
	c0.19,0,0.33,0.09,0.42,0.26c0.09,0.17,0.14,0.42,0.14,0.75c0,0.18-0.05,0.52-0.14,1.01c-0.09,0.5-0.23,1.16-0.42,1.99
	c-0.05,0.15-0.1,0.3-0.14,0.44c-0.03,0.1-0.05,0.19-0.07,0.26c-0.01,0.08-0.01,0.14-0.01,0.17c0,0.05,0.02,0.11,0.05,0.17
	c0.03-0.02,0.05-0.05,0.08-0.09c0.02-0.04,0.05-0.09,0.08-0.14c0.04-0.12,0.11-0.24,0.19-0.37c0.09-0.13,0.19-0.27,0.32-0.42
	c0.05-0.13,0.11-0.26,0.19-0.39c0.08-0.13,0.16-0.24,0.26-0.35c0.02-0.03,0.05-0.08,0.08-0.15c0.03-0.07,0.07-0.14,0.12-0.22
	c0.07-0.1,0.15-0.21,0.25-0.31c0.1-0.11,0.21-0.22,0.34-0.34c0.14-0.11,0.27-0.19,0.39-0.26c0.12-0.06,0.21-0.09,0.3-0.09
	c0.16,0,0.31,0.06,0.44,0.17c0.13,0.11,0.24,0.3,0.33,0.54c0.11,0.48,0.21,0.92,0.3,1.33c0.06,0.24,0.12,0.42,0.2,0.53
	c0.07,0.11,0.15,0.17,0.24,0.17c0.07,0,0.13-0.02,0.18-0.06c0.05-0.04,0.11-0.1,0.15-0.18l0.33,1.07c-0.09,0.11-0.18,0.22-0.28,0.34
	c-0.1,0.12-0.19,0.23-0.28,0.34c-0.12,0.16-0.24,0.28-0.34,0.34c-0.11,0.07-0.21,0.1-0.32,0.1c-0.12,0-0.24-0.04-0.35-0.11
	c-0.11-0.08-0.21-0.19-0.29-0.35c-0.04-0.06-0.1-0.17-0.16-0.34c-0.06-0.17-0.14-0.37-0.22-0.62c-0.07-0.1-0.15-0.23-0.24-0.39
	c-0.09-0.17-0.19-0.36-0.31-0.58l-0.07-0.04c-0.1,0.05-0.2,0.12-0.3,0.21c-0.1,0.09-0.21,0.21-0.31,0.36
	c-0.24,0.31-0.42,0.5-0.52,0.58c-0.11,0.08-0.18,0.17-0.22,0.26c-0.07,0.19-0.2,0.43-0.38,0.72c-0.18,0.29-0.41,0.64-0.68,1.04
	c-0.07,0.1-0.14,0.2-0.21,0.3c-0.07,0.09-0.14,0.19-0.21,0.28c-0.07,0.08-0.15,0.14-0.24,0.18s-0.19,0.05-0.29,0.05
	c-0.21,0-0.33-0.11-0.35-0.32c-0.02-0.21-0.04-0.43-0.05-0.64c0.08-0.32,0.17-0.73,0.27-1.22c0.1-0.49,0.22-1.05,0.35-1.7
	c0-0.04,0.01-0.09,0.03-0.15c0.02-0.07,0.04-0.15,0.07-0.26c0.03-0.1,0.05-0.19,0.06-0.26c0.01-0.07,0.02-0.14,0.02-0.19
	c0-0.06-0.01-0.1-0.04-0.13c-0.03-0.03-0.07-0.04-0.13-0.04c-0.05,0-0.12,0.04-0.21,0.14c-0.09,0.09-0.19,0.24-0.32,0.44
	c-0.15,0.23-0.27,0.41-0.36,0.54c-0.09,0.13-0.15,0.21-0.18,0.23c-0.05,0.05-0.12,0.13-0.19,0.23c-0.07,0.1-0.15,0.21-0.24,0.34
	c-0.01,0.03-0.03,0.08-0.05,0.14c-0.02,0.06-0.05,0.13-0.1,0.21c-0.02-0.11-0.06-0.26-0.11-0.43
	C285.2,377.25,285.13,377.04,285.05,376.79z M279.15,376.29l0.73-0.69c0.03-0.04,0.06-0.09,0.1-0.16c0.04-0.06,0.08-0.16,0.13-0.28
	c0.04-0.1,0.09-0.19,0.15-0.26c0.06-0.07,0.13-0.13,0.21-0.19c0.04-0.08,0.1-0.17,0.18-0.29c0.08-0.11,0.18-0.25,0.3-0.4
	c0.06-0.05,0.13-0.11,0.22-0.21c0.09-0.09,0.19-0.21,0.3-0.35c0.49-0.66,0.91-1.16,1.28-1.49c0.37-0.33,0.67-0.5,0.92-0.5
	c0.14,0,0.24,0.04,0.31,0.13c0.07,0.09,0.1,0.21,0.1,0.36c0,0.16-0.02,0.3-0.06,0.43c-0.04,0.13-0.1,0.23-0.19,0.31
	c-0.13,0.14-0.28,0.3-0.43,0.47c-0.08,0.16-0.19,0.33-0.31,0.51c-0.12,0.18-0.27,0.36-0.43,0.54c-0.05,0.1-0.1,0.19-0.13,0.27
	c-0.03,0.04-0.08,0.11-0.15,0.21c-0.07,0.1-0.17,0.22-0.3,0.35c-0.05,0.17-0.17,0.39-0.35,0.66c-0.18,0.27-0.42,0.6-0.71,0.97
	c-0.04,0.06-0.1,0.18-0.2,0.37c-0.1,0.19-0.22,0.45-0.37,0.77l0.05,0.1c0.12-0.06,0.24-0.15,0.37-0.28
	c0.13-0.13,0.27-0.31,0.43-0.52c0.18-0.24,0.33-0.43,0.44-0.58c0.11-0.15,0.2-0.25,0.25-0.3c0.04-0.03,0.07-0.06,0.11-0.09
	c0.04-0.03,0.08-0.07,0.13-0.12c0.25-0.42,0.48-0.74,0.69-0.94c0.21-0.21,0.41-0.31,0.59-0.31c0.11,0,0.2,0.06,0.25,0.19
	c0.06,0.13,0.09,0.32,0.1,0.57c-0.01,0.39-0.02,0.76-0.02,1.11c-0.01,0.25,0.04,0.47,0.14,0.67c0.1,0.2,0.23,0.3,0.39,0.3
	c0.05,0,0.1-0.02,0.14-0.06c0.05-0.04,0.09-0.09,0.14-0.15c0.04-0.07,0.07-0.14,0.11-0.2c0.04-0.06,0.07-0.12,0.11-0.19
	c0.02-0.02,0.05-0.04,0.09-0.08c0.04-0.04,0.08-0.09,0.11-0.14c0.08,0.23,0.14,0.43,0.19,0.61c0.05,0.17,0.09,0.33,0.12,0.46
	c-0.12,0.16-0.24,0.33-0.36,0.51c-0.12,0.18-0.25,0.34-0.38,0.5c-0.16,0.18-0.31,0.31-0.47,0.4c-0.15,0.09-0.3,0.13-0.45,0.13
	c-0.34,0-0.61-0.14-0.8-0.43c-0.19-0.29-0.3-0.72-0.33-1.3c0-0.07-0.01-0.14-0.02-0.21c-0.01-0.07-0.04-0.15-0.08-0.23
	c-0.03,0.04-0.06,0.08-0.09,0.12c-0.03,0.04-0.07,0.1-0.11,0.17c-0.07,0.08-0.16,0.17-0.26,0.29c-0.1,0.11-0.22,0.25-0.36,0.41
	c-0.19,0.28-0.34,0.51-0.47,0.68c-0.13,0.18-0.22,0.3-0.27,0.38c-0.11,0.13-0.23,0.26-0.37,0.39c-0.14,0.13-0.3,0.26-0.48,0.41
	c-0.11,0.08-0.21,0.15-0.29,0.2c-0.08,0.05-0.14,0.07-0.18,0.07c-0.26,0-0.45-0.09-0.57-0.27c-0.12-0.18-0.18-0.46-0.18-0.84
	c0-0.21,0.03-0.41,0.1-0.6c0.06-0.19,0.16-0.38,0.28-0.55c0.01-0.1,0.02-0.18,0.02-0.24c0-0.04-0.01-0.08-0.02-0.12
	c-0.01-0.04-0.03-0.09-0.05-0.14c-0.03-0.11-0.07-0.23-0.11-0.37c-0.04-0.14-0.08-0.28-0.13-0.44c0.02-0.03,0.05-0.09,0.09-0.18
	C279.05,376.52,279.1,376.41,279.15,376.29z"/>
<text transform="matrix(0.9967 0 0 1.2684 310.4487 379.1149)" fill="#2E3192" font-family="'Mistral'" font-size="18.9216px">.</text>
<text transform="matrix(0.9967 0 0 1.2684 310.4487 379.1149)" fill="none" stroke="#2E3192" stroke-width="0.216" stroke-miterlimit="2.6131" font-family="'Mistral'" font-size="18.9216px">.</text>
<text transform="matrix(0.9967 0 0 1.2684 314.6167 379.1149)" fill="#2E3192" font-family="'Mistral'" font-size="18.9216px">.</text>
<text transform="matrix(0.9967 0 0 1.2684 314.6167 379.1149)" fill="none" stroke="#2E3192" stroke-width="0.216" stroke-miterlimit="2.6131" font-family="'Mistral'" font-size="18.9216px">.</text>
<text transform="matrix(0.9967 0 0 1.2684 318.7847 379.1149)" fill="#2E3192" font-family="'Mistral'" font-size="18.9216px">.</text>
<text transform="matrix(0.9967 0 0 1.2684 318.7847 379.1149)" fill="none" stroke="#2E3192" stroke-width="0.216" stroke-miterlimit="2.6131" font-family="'Mistral'" font-size="18.9216px">.</text>
</svg>
